<svg id="multimedia-option_1_" data-name="multimedia-option (1)" xmlns="http://www.w3.org/2000/svg" width="24" height="21" viewBox="0 0 24 21">
  <g id="Group_5195" data-name="Group 5195">
    <path id="Path_5403" data-name="Path 5403" d="M23.959,43.914A8.507,8.507,0,0,0,15.375,36.5H9v-3.75a.75.75,0,0,0-1.218-.586l-7.5,6a.752.752,0,0,0,0,1.173l7.5,6A.751.751,0,0,0,9,44.747V41h6.534a3.9,3.9,0,0,1,3.946,3.361A3.752,3.752,0,0,1,15.75,48.5h-6a.75.75,0,0,0-.75.75v3a.75.75,0,0,0,.75.75h6A8.264,8.264,0,0,0,23.959,43.914Z" transform="translate(0 -31.996)" fill="#fff"/>
  </g>
</svg>
