<svg xmlns="http://www.w3.org/2000/svg" width="24" height="32" viewBox="0 0 24 32">
  <path id="barcode" d="M22.372,1.507h-.82a1.118,1.118,0,0,0-.88-.977,32.488,32.488,0,0,0-15.6.934c-.229.082-3.707,2.016-3.631,2.262S5.12,2.436,5.349,2.354a31.679,31.679,0,0,1,15.175-.9.213.213,0,0,1,.167.215V3.8H7.13A2.209,2.209,0,0,0,5.007,6.084v.178A2.209,2.209,0,0,0,7.13,8.543H20.69v2.133a.213.213,0,0,1-.167.215C11.409,12.585.88,9.892.88,6.173c0-1.126,1.059-2.263,2.983-3.2C4.082,2.866,8.283,1.1,8.183.865S3.722,2.012,3.5,2.119C-1.15,4.385-.994,7.766,2.968,9.95c.814,1.58,2.71,3.525,2.934,7.247.015.258.489-1.749.249-1.774s-.252,3.19-.276,3.448c-.082.893-.119.812-1.521,8.373a2.687,2.687,0,0,0,2.02,3.184A1.59,1.59,0,0,0,7.908,32h5.224a1.587,1.587,0,0,0,1.531-1.534,2.143,2.143,0,0,0,.85-3.911l-.9-.573A2.282,2.282,0,0,1,13.6,23.846l.369-3.922A2.887,2.887,0,0,0,16.2,18.53a2.546,2.546,0,0,0,.134-1.933l-1.421-4.251a32.941,32.941,0,0,0,5.761-.53,1.118,1.118,0,0,0,.88-.977h.819A1.7,1.7,0,0,0,24,9.085V3.261A1.7,1.7,0,0,0,22.372,1.507ZM13.132,31.062H7.908a.679.679,0,0,1-.653-.6l6.53,0A.679.679,0,0,1,13.132,31.062Zm2.3-12.977a1.757,1.757,0,0,1-1.363.849c.156-1.666.311-3.313.465-4.952C15.641,17.3,15.612,17.72,15.429,18.086Zm7.7-9a.79.79,0,0,1-.759.816h-.809V2.445h.809a.79.79,0,0,1,.759.816Zm0,0" transform="translate(-0.003 0)" fill="#fff"/>
</svg>
