<svg xmlns="http://www.w3.org/2000/svg" width="18" height="24" viewBox="0 0 18 24">
  <path id="barcode" d="M16.78,1.13h-.615A.838.838,0,0,0,15.5.4a24.366,24.366,0,0,0-11.7.7,15.26,15.26,0,0,0-2.723,1.7,16.57,16.57,0,0,0,2.93-1.029A23.76,23.76,0,0,1,15.394,1.09a.16.16,0,0,1,.125.161v1.6H5.348A1.657,1.657,0,0,0,3.756,4.563V4.7A1.657,1.657,0,0,0,5.348,6.407h10.17v1.6a.16.16,0,0,1-.125.161C8.558,9.439.661,7.419.661,4.63c0-.845.795-1.7,2.237-2.4A22.6,22.6,0,0,0,6.138.649a19.6,19.6,0,0,0-3.51.94c-3.489,1.7-3.372,4.236-.4,5.873.611,1.185,2.032,2.644,2.2,5.435.012.194.367-1.312.187-1.331a12.561,12.561,0,0,0-.207,2.586c-.062.67-.089.609-1.141,6.279A2.015,2.015,0,0,0,4.782,22.82,1.193,1.193,0,0,0,5.932,24H9.85A1.19,1.19,0,0,0,11,22.849a1.607,1.607,0,0,0,.638-2.933l-.677-.429a1.711,1.711,0,0,1-.754-1.6l.276-2.942A2.166,2.166,0,0,0,12.149,13.9a1.91,1.91,0,0,0,.1-1.45L11.184,9.259a24.706,24.706,0,0,0,4.321-.4.838.838,0,0,0,.66-.733h.615A1.273,1.273,0,0,0,18,6.814V2.445A1.273,1.273,0,0,0,16.78,1.13ZM9.85,23.3H5.932a.509.509,0,0,1-.49-.447l4.9,0A.509.509,0,0,1,9.85,23.3Zm1.723-9.733a1.318,1.318,0,0,1-1.022.637c.117-1.249.233-2.485.349-3.714C11.732,12.978,11.71,13.29,11.573,13.564Zm5.776-6.75a.592.592,0,0,1-.569.612h-.607V1.833h.607a.593.593,0,0,1,.569.612Zm0,0" transform="translate(-0.003 0)" fill="#fff"/>
</svg>
