<svg xmlns="http://www.w3.org/2000/svg" width="16" height="24" viewBox="0 0 16 24">
  <g id="dataphone" transform="translate(-33.552 -64)">
    <path id="Path_5423" data-name="Path 5423" d="M14.286,1H1.714A1.686,1.686,0,0,0,0,2.655v20.69A1.686,1.686,0,0,0,1.714,25H14.286A1.686,1.686,0,0,0,16,23.345V2.655A1.686,1.686,0,0,0,14.286,1ZM5.143,22.517a.562.562,0,0,1-.571.552H2.286a.562.562,0,0,1-.571-.552V20.862a.562.562,0,0,1,.571-.552H4.571a.562.562,0,0,1,.571.552Zm0-3.862a.562.562,0,0,1-.571.552H2.286a.562.562,0,0,1-.571-.552V17a.562.562,0,0,1,.571-.552H4.571A.562.562,0,0,1,5.143,17Zm0-3.862a.562.562,0,0,1-.571.552H2.286a.562.562,0,0,1-.571-.552V13.138a.562.562,0,0,1,.571-.552H4.571a.562.562,0,0,1,.571.552Zm0-3.862a.562.562,0,0,1-.571.552H2.286a.562.562,0,0,1-.571-.552V9.276a.562.562,0,0,1,.571-.552H4.571a.562.562,0,0,1,.571.552ZM9.714,22.517a.562.562,0,0,1-.571.552H6.857a.562.562,0,0,1-.571-.552V20.862a.562.562,0,0,1,.571-.552H9.143a.562.562,0,0,1,.571.552Zm0-3.862a.562.562,0,0,1-.571.552H6.857a.562.562,0,0,1-.571-.552V17a.562.562,0,0,1,.571-.552H9.143A.562.562,0,0,1,9.714,17Zm0-3.862a.562.562,0,0,1-.571.552H6.857a.562.562,0,0,1-.571-.552V13.138a.562.562,0,0,1,.571-.552H9.143a.562.562,0,0,1,.571.552Zm0-3.862a.562.562,0,0,1-.571.552H6.857a.562.562,0,0,1-.571-.552V9.276a.562.562,0,0,1,.571-.552H9.143a.562.562,0,0,1,.571.552Zm4.571,11.586a.562.562,0,0,1-.571.552H11.429a.562.562,0,0,1-.571-.552V17a.562.562,0,0,1,.571-.552h2.286a.562.562,0,0,1,.571.552Zm0-7.724a.562.562,0,0,1-.571.552H11.429a.562.562,0,0,1-.571-.552V13.138a.562.562,0,0,1,.571-.552h2.286a.562.562,0,0,1,.571.552Zm0-3.862a.562.562,0,0,1-.571.552H11.429a.562.562,0,0,1-.571-.552V9.276a.562.562,0,0,1,.571-.552h2.286a.562.562,0,0,1,.571.552Zm0-4.414H1.714V3.483H14.286Z" transform="translate(33.552 63)" fill="#fff"/>
  </g>
</svg>
