<svg xmlns="http://www.w3.org/2000/svg" width="24" height="20.223" viewBox="0 0 24 20.223">
  <path id="online-store" d="M22.982,47.1H18L15.21,40.7a.7.7,0,1,0-1.289.563L16.469,47.1H7.53l2.547-5.833A.7.7,0,1,0,8.789,40.7L6,47.1H1.017a1,1,0,0,0-.992,1.21L2.647,59.73a1.012,1.012,0,0,0,.992.776H20.36a1.012,1.012,0,0,0,.992-.776l2.622-11.42a1,1,0,0,0-.992-1.21Zm-14.5,9.656a.7.7,0,0,1-1.406,0V51.6a.7.7,0,0,1,1.406,0Zm4.219,0a.7.7,0,0,1-1.406,0V51.6a.7.7,0,0,1,1.406,0Zm4.219,0a.7.7,0,0,1-1.406,0V51.6a.7.7,0,0,1,1.406,0Z" transform="translate(0 -40.283)" fill="#3e5369"/>
</svg>
