<svg xmlns="http://www.w3.org/2000/svg" width="24" height="20" viewBox="0 0 24 20"><defs><style>.a{fill:#fff;}</style></defs><path class="a" d="M22.983,47.025H18L15.211,40.7a.706.706,0,0,0-.926-.359.692.692,0,0,0-.363.916l2.547,5.768H7.53l2.547-5.768a.692.692,0,0,0-.363-.916.706.706,0,0,0-.926.359L6,47.025H1.017a.991.991,0,0,0-.992,1.2L2.647,59.515a1.01,1.01,0,0,0,.992.767H20.361a1.01,1.01,0,0,0,.992-.767l2.622-11.294A.991.991,0,0,0,22.983,47.025ZM7.547,46.987Zm.937,9.587a.7.7,0,0,1-1.406,0v-5.1a.7.7,0,0,1,1.406,0Zm4.219,0a.7.7,0,0,1-1.406,0v-5.1a.7.7,0,0,1,1.406,0Zm4.219,0a.7.7,0,0,1-1.406,0v-5.1a.7.7,0,0,1,1.406,0Z" transform="translate(0 -40.283)"/></svg>