<svg xmlns="http://www.w3.org/2000/svg" width="20" height="20" viewBox="0 0 20 20">
  <g id="close" transform="translate(0 -0.016)">
    <g id="Group_5085" data-name="Group 5085" transform="translate(0 0.016)">
      <path id="Path_5342" data-name="Path 5342" d="M12.2,10.016,19.68,2.537a1.1,1.1,0,0,0,0-1.547L19.025.335a1.1,1.1,0,0,0-1.547,0L10,7.813,2.522.335a1.1,1.1,0,0,0-1.547,0L.32.991a1.1,1.1,0,0,0,0,1.547L7.8,10.016.32,17.494a1.1,1.1,0,0,0,0,1.547l.655.655a1.1,1.1,0,0,0,1.547,0L10,12.218,17.478,19.7a1.085,1.085,0,0,0,.773.319h0a1.085,1.085,0,0,0,.773-.319l.655-.655a1.1,1.1,0,0,0,0-1.547Z" transform="translate(0 -0.016)" fill="#fff"/>
    </g>
  </g>
</svg>
