<svg xmlns="http://www.w3.org/2000/svg" width="24" height="24.001" viewBox="0 0 24 24.001"><defs><style>.a{fill:#fff;}</style></defs><g transform="translate(0 0.001)"><path class="a" d="M98.834,90.593a6.909,6.909,0,0,0-.953-2.3l.9-.9-2.073-2.072-.9.9a6.909,6.909,0,0,0-2.3-.953V84H90.579V85.27a6.908,6.908,0,0,0-2.3.953l-.9-.9L85.309,87.4l.9.9a6.909,6.909,0,0,0-.953,2.3H83.982l0,2.931h1.274a6.9,6.9,0,0,0,.953,2.3l-.9.9L87.378,98.8l.9-.9a6.9,6.9,0,0,0,2.3.953v1.278H93.51V98.848a6.9,6.9,0,0,0,2.3-.953l.9.9,2.072-2.073-.9-.9a6.9,6.9,0,0,0,.953-2.3h1.274V90.593Zm-6.789,4.874a3.4,3.4,0,1,1,3.4-3.4A3.4,3.4,0,0,1,92.044,95.468Zm0,0" transform="translate(-80.044 -80.063)"/><path class="a" d="M4.221,18.56a1.957,1.957,0,0,0-.946.241A11.068,11.068,0,0,1,14.2,1.156a.469.469,0,0,0,.186-.919A12.09,12.09,0,0,0,12,0,12,12,0,0,0,2.582,19.437a1.97,1.97,0,1,0,1.639-.877Zm.729,2.7a1.031,1.031,0,1,1,.3-.729A1.024,1.024,0,0,1,4.95,21.258Zm0,0"/><path class="a" d="M209.644,35.111a1.965,1.965,0,1,0-.693.636A11.068,11.068,0,0,1,198.045,53.4a.469.469,0,0,0-.184.919,12.1,12.1,0,0,0,2.366.233,12,12,0,0,0,9.418-19.438Zm-2.368-.362a1.032,1.032,0,1,1,.729.3A1.025,1.025,0,0,1,207.277,34.749Zm0,0" transform="translate(-188.227 -30.549)"/><path class="a" d="M338.547,18.747a.469.469,0,1,0-.331-.137A.472.472,0,0,0,338.547,18.747Zm0,0" transform="translate(-322.231 -16.974)"/><path class="a" d="M154.828,474.359a.469.469,0,1,0,.331.137A.472.472,0,0,0,154.828,474.359Zm0,0" transform="translate(-147.124 -452.123)"/></g></svg>