<svg id="credit-card_2_" data-name="credit-card (2)" xmlns="http://www.w3.org/2000/svg" width="32" height="24" viewBox="0 0 32 24">
  <path id="Path_5361" data-name="Path 5361" d="M0,213.513v9.325A4.614,4.614,0,0,0,4.318,227.7H27.682A4.614,4.614,0,0,0,32,222.838v-9.325a.8.8,0,0,0-.751-.846H.751A.8.8,0,0,0,0,213.513Zm7.99,5.919h-2a1.49,1.49,0,0,1,0-2.96h2a1.49,1.49,0,0,1,0,2.96Z" transform="translate(0 -203.7)" fill="#3e5369"/>
  <path id="Path_5362" data-name="Path 5362" d="M32,90.5V90.2a4.614,4.614,0,0,0-4.318-4.862H4.318A4.614,4.614,0,0,0,0,90.2V90.5a.8.8,0,0,0,.751.846h30.5A.8.8,0,0,0,32,90.5Z" transform="translate(0 -85.334)" fill="#3e5369"/>
</svg>
