<svg xmlns="http://www.w3.org/2000/svg" width="23.243" height="23.999" viewBox="0 0 23.243 23.999">
  <g id="credit-card_1_" data-name="credit-card (1)" transform="translate(-7.7 0)">
    <g id="Group_5136" data-name="Group 5136" transform="translate(7.7 0)">
      <path id="Path_5370" data-name="Path 5370" d="M26.228,6.185a.321.321,0,0,0,.133-.614L14.087.13a1.482,1.482,0,0,0-1.96.751l-4.3,9.636a1.482,1.482,0,0,0,.751,1.96l2.475,1.071a.472.472,0,0,0,.663-.427V9.029A2.84,2.84,0,0,1,14.558,6.19h11.67Z" transform="translate(-7.7 0)" fill="#fff"/>
      <path id="Path_5371" data-name="Path 5371" d="M133.026,153.136H118.139a1.5,1.5,0,0,0-1.5,1.5v10.515a1.5,1.5,0,0,0,1.5,1.5h2a5.458,5.458,0,0,1-.074-.9,5.687,5.687,0,0,1,.093-1.007h-1.611v-5.034h14.076v5.029h-1.616a5.686,5.686,0,0,1,.093,1.007,5.458,5.458,0,0,1-.074.9h2a1.5,1.5,0,0,0,1.5-1.5V154.639A1.5,1.5,0,0,0,133.026,153.136Zm-.4,3.482H118.547v-1.577h14.076Z" transform="translate(-111.286 -145.615)" fill="#fff"/>
      <path id="Path_5372" data-name="Path 5372" d="M224.1,331.436a3.86,3.86,0,1,0,3.86,3.86A3.861,3.861,0,0,0,224.1,331.436Zm1.11,5.383a1.222,1.222,0,0,1-.643.413.18.18,0,0,0-.157.206c0,.113,0,.226,0,.344a.139.139,0,0,1-.152.157q-.184.007-.368,0c-.108,0-.157-.064-.157-.167v-.25c0-.182-.01-.192-.187-.221a2.316,2.316,0,0,1-.653-.187c-.162-.079-.182-.118-.133-.29.034-.128.069-.255.108-.378.044-.147.083-.162.221-.093a2.107,2.107,0,0,0,.727.216.883.883,0,0,0,.476-.064.368.368,0,0,0,.088-.648,1,1,0,0,0-.27-.157,5.6,5.6,0,0,1-.742-.334,1.044,1.044,0,0,1-.594-1.007,1.106,1.106,0,0,1,.81-1.026c.2-.074.2-.069.2-.275v-.211c0-.157.029-.182.187-.187h.142c.334,0,.334,0,.334.334,0,.236,0,.236.236.27a2.143,2.143,0,0,1,.516.152.148.148,0,0,1,.1.2c-.039.142-.079.29-.128.427s-.088.152-.216.093a1.621,1.621,0,0,0-.815-.162.652.652,0,0,0-.216.044.31.31,0,0,0-.079.55,1.57,1.57,0,0,0,.354.2,5.476,5.476,0,0,1,.648.295A1.155,1.155,0,0,1,225.206,336.819Z" transform="translate(-209.797 -315.158)" fill="#fff"/>
    </g>
  </g>
</svg>
