<svg id="Group_2" data-name="Group 2" xmlns="http://www.w3.org/2000/svg" width="16" height="16" viewBox="0 0 16 16">
  <circle id="Oval" cx="8" cy="8" r="8" fill="#ff5722"/>
  <path id="_" data-name="+" d="M4.714,8.533A1.067,1.067,0,0,1,3.647,7.467V4.886H1.067A1.067,1.067,0,0,1,0,3.82H0a.2.2,0,0,1,.18-.18H3.647V1.067A1.067,1.067,0,0,1,4.714,0h0a.2.2,0,0,1,.18.18V3.64H7.467A1.067,1.067,0,0,1,8.533,4.706h0a.2.2,0,0,1-.18.18H4.894v2.58A1.067,1.067,0,0,1,3.827,8.533Z" transform="translate(8.167 2.133) rotate(45)" fill="#fff"/>
</svg>
