<svg xmlns="http://www.w3.org/2000/svg" width="19.04" height="24" viewBox="0 0 19.04 24">
  <g id="delete" transform="translate(0.003 0.001)">
    <path id="Path_4745" data-name="Path 4745" d="M222.892,154.7a.493.493,0,0,0-.493.493v9.32a.493.493,0,1,0,.986,0V155.2A.493.493,0,0,0,222.892,154.7Zm0,0" transform="translate(-210.116 -144.133)"/>
    <path id="Path_4746" data-name="Path 4746" d="M104.892,154.7a.493.493,0,0,0-.493.493v9.32a.493.493,0,1,0,.986,0V155.2A.493.493,0,0,0,104.892,154.7Zm0,0" transform="translate(-98.634 -144.133)"/>
    <path id="Path_4747" data-name="Path 4747" d="M1.556,7.144V20.992a3.142,3.142,0,0,0,.805,2.139A2.674,2.674,0,0,0,4.323,24H14.71a2.674,2.674,0,0,0,1.962-.868,3.142,3.142,0,0,0,.805-2.139V7.144a2.146,2.146,0,0,0,1.541-2.353,2.115,2.115,0,0,0-2.08-1.869H14.128v-.7A2.235,2.235,0,0,0,13.495.643,2.131,2.131,0,0,0,11.954,0H7.079A2.131,2.131,0,0,0,5.538.643,2.235,2.235,0,0,0,4.9,2.219v.7H2.094A2.115,2.115,0,0,0,.015,4.791,2.146,2.146,0,0,0,1.556,7.144ZM14.71,22.875H4.323a1.764,1.764,0,0,1-1.669-1.883V7.193H16.379v13.8A1.764,1.764,0,0,1,14.71,22.875ZM6,2.219a1.1,1.1,0,0,1,.312-.781,1.045,1.045,0,0,1,.765-.315h4.875a1.045,1.045,0,0,1,.765.315,1.1,1.1,0,0,1,.312.781v.7H6ZM2.094,4.046H16.939a1.012,1.012,0,0,1,0,2.023H2.094a1.012,1.012,0,0,1,0-2.023Zm0,0" transform="translate(0 0)"/>
    <path id="Path_4748" data-name="Path 4748" d="M163.892,154.7a.493.493,0,0,0-.493.493v9.32a.493.493,0,1,0,.986,0V155.2A.493.493,0,0,0,163.892,154.7Zm0,0" transform="translate(-154.375 -144.133)"/>
  </g>
</svg>
