<svg xmlns="http://www.w3.org/2000/svg" width="20" height="20" viewBox="0 0 20 20">
  <g id="badge_1_" data-name="badge (1)" transform="translate(-4.894 0)">
    <path id="Path_4886" data-name="Path 4886" d="M24.639,11.111l-.31-.413a1.281,1.281,0,0,1-.012-1.519l.3-.417a1.285,1.285,0,0,0-.459-1.9L23.7,6.62a1.292,1.292,0,0,1-.682-1.365l.087-.506A1.31,1.31,0,0,0,21.846,3.23l-.521-.02a1.321,1.321,0,0,1-1.219-.94l-.145-.494a1.336,1.336,0,0,0-1.8-.834l-.479.2A1.348,1.348,0,0,1,16.165.816L15.818.436a1.347,1.347,0,0,0-2,.012l-.343.385a1.345,1.345,0,0,1-1.508.348L11.488.986A1.334,1.334,0,0,0,9.7,1.849l-.136.494A1.323,1.323,0,0,1,8.356,3.3l-.521.028A1.309,1.309,0,0,0,6.6,4.862l.1.5a1.3,1.3,0,0,1-.661,1.373l-.459.247a1.29,1.29,0,0,0-.43,1.908l.31.413a1.281,1.281,0,0,1,.012,1.519l-.3.417a1.285,1.285,0,0,0,.459,1.9l.463.243a1.292,1.292,0,0,1,.682,1.365l-.087.506a1.31,1.31,0,0,0,1.256,1.519l.521.02a1.321,1.321,0,0,1,1.219.94l.145.494a1.336,1.336,0,0,0,1.8.834l.479-.2a1.348,1.348,0,0,1,1.516.328l.347.381a1.346,1.346,0,0,0,1.992-.016l.343-.385a1.345,1.345,0,0,1,1.508-.348l.483.194a1.334,1.334,0,0,0,1.789-.863l.136-.494a1.323,1.323,0,0,1,1.206-.956l.521-.028a1.309,1.309,0,0,0,1.231-1.535l-.1-.5a1.3,1.3,0,0,1,.661-1.373l.459-.247A1.283,1.283,0,0,0,24.639,11.111Zm-7.284,2.211a2.8,2.8,0,0,1-1.43.9.392.392,0,0,0-.347.445c.012.247,0,.5,0,.745a.307.307,0,0,1-.339.344q-.409.012-.818,0a.327.327,0,0,1-.355-.364c0-.182,0-.364,0-.543,0-.4-.017-.417-.409-.478a5.143,5.143,0,0,1-1.454-.409c-.359-.17-.4-.259-.293-.632.079-.275.153-.555.244-.826.1-.316.19-.356.488-.207a4.787,4.787,0,0,0,1.616.474,2.027,2.027,0,0,0,1.062-.138.8.8,0,0,0,.2-1.417,2.615,2.615,0,0,0-.6-.348,14.263,14.263,0,0,1-1.653-.729,2.286,2.286,0,0,1-1.322-2.191,2.424,2.424,0,0,1,1.8-2.236c.442-.158.442-.15.446-.6V4.652c.008-.34.066-.4.413-.409.107,0,.215,0,.322,0,.735,0,.735,0,.74.721,0,.51,0,.514.521.591a4.7,4.7,0,0,1,1.145.336.329.329,0,0,1,.219.437c-.091.312-.178.628-.281.936-.1.292-.19.336-.479.2a3.73,3.73,0,0,0-1.814-.352,1.408,1.408,0,0,0-.483.1A.665.665,0,0,0,14.31,8.4a3.166,3.166,0,0,0,.789.433,14.173,14.173,0,0,1,1.438.636A2.516,2.516,0,0,1,17.355,13.322Z" transform="translate(0)" fill="#fff"/>
  </g>
</svg>
