<svg xmlns="http://www.w3.org/2000/svg" width="19.387" height="17.281" viewBox="0 0 19.387 17.281">
  <g id="tools-and-utensils" transform="translate(-0.335 -20.122)">
    <g id="Group_5211" data-name="Group 5211" transform="translate(0.335 20.122)">
      <path id="Path_5418" data-name="Path 5418" d="M87.76,26.95h4.295l1.858,4.109.846-.351-1.9,3.056L89.329,32.9l.95-.475-1.4-2.519-2.416,3.2L83.3,30.749l3.159-3.8Z" transform="translate(-79.336 -26.95)" fill="#fff"/>
      <path id="Path_5419" data-name="Path 5419" d="M8.9,169c-.805-1.2-2.4-3.551-2.4-3.551l2.354-3.84-.764-.516,3.593-.145,1.259,3.407-.908-.516-1.3,2.581,3.985.186v3.778H9.8Z" transform="translate(-6.5 -154.033)" fill="#fff"/>
      <path id="Path_5420" data-name="Path 5420" d="M219.2,164.987c-.6,1.321-1.755,3.9-1.755,3.9h-4.5l-.041.908-2-2.973,2.23-2.87.041,1.053,2.891-.248-1.941-3.489,3.448-1.92,2.168,4.439Z" transform="translate(-200.35 -152.516)" fill="#fff"/>
    </g>
  </g>
</svg>
