<svg id="Layer_1" data-name="Layer 1" xmlns="http://www.w3.org/2000/svg" viewBox="0 0 240 360"><title>dw-1</title><path d="M222.8,233c.23-11.36,3.08-90.65,1.76-118.94A193.67,193.67,0,0,0,222.45,94a47.48,47.48,0,0,0-3.26-11.38c-2.36-5.53-5.73-10.29-11.4-13.23-2.94-1.52-49.49-12.71-53.38-13.67-2.57-.64-4.85-1.72-5.74-3.62a34.36,34.36,0,0,1-3.23-11.29c-.58-7-.33-14-.46-21a7.3,7.3,0,0,1,1.64-4.7,60.62,60.62,0,0,0,6.14-10.56c-1.78-1.16-2.82-.11-3.87,2a96.5,96.5,0,0,1-10.46,13.93c-6.26,5.92-12.85,11.19-20.89,9.06-4.82-1.28-8.43-4.06-13.58-7.32A52.88,52.88,0,0,1,88.28,6.52C87,4.27,86.19,4.43,84.75,4.87c2.66,4,5,8.1,8.34,11.46A5.31,5.31,0,0,1,95,20.48c-.38,8.31-.12,16.64-1.86,24.88-.77,3.64-1.73,7.14-4.63,9.36-4.24,3.24-20.47,5-26.2,6.25-5.1,1.15-10.31,1.91-15.53,2.9C35,66.08,23.49,73.4,20,83.1c-2.34,6.49-4.66,34.93-5.09,42.32-1.56,27.24-.31,54.45,1,81.66.25,5.41-.57,43.7-3.16,57.26a31.94,31.94,0,0,0-.49,5.53c-.11,8.73-.29,17.46-.19,26.18.13,11.23.37,22.44,2.27,33.59,1.28,7.53,1.63,15.22,2.51,22.82A5,5,0,0,0,18.25,355a2,2,0,0,0,1.73-.21,6.71,6.71,0,0,0,.28-2.85c-.44-3.66-1-7.29-1.48-10.94-.33-2.76-3-23.17-3-30.73,0-3.3-.36-6.6-.38-9.9-.07-16.25-.64-32.53,2.23-48.65.46-2.59,2.15-30.57,1.46-42Q17.77,187,17,164.19c-.28-7.52-.15-15.07.1-22.6.24-7.13,1.74-42.45,4.59-52.8,2.63-9.59,7.61-16.41,17.78-18.61,2-.43,3.08.24,3.73,1.93C43.49,73,44.34,127.62,47,146c.53,3.78,3.16,16,3,18.31-.43,6.83-3.67,28.48-3.9,31.76-.63,8.83-1,17.68-1.45,26.52-.3,5.81-.73,34.2-.78,35-.45,6.6-1.53,24.55-2,26.87-1,5.19-11.18,71.19-9.42,71.45s3.21-3,3.26-3.41c.56-5,4.86-41.5,7.83-54.48,1.27-5.53,2.21-11.14,3.2-16.73,1.23-7,2.08-14.11,3.6-21.06,2.46-11.24,4.54-22.52,5.89-34,2.21-18.87,2.52-37.69-.27-56.54-.59-4-3.44-19.29-3.55-20.28-.95-9.46-2.17-18.92-2.61-28.41-.48-10.43-.87-42.41-1.25-47.95-.2-2.78.1-5.55,2.11-6,4.52-.95,20.12-4.24,24-5.23,4.18-1,7.88,1.08,11.12,3.49a51.54,51.54,0,0,0,8.29,4.55,53.34,53.34,0,0,0,35.59,4c21.28-4.68,26.51-13,27.55-14.09,2.33.3,20.13,5.29,26.13,6.27,2.48.41,1.52,4.31,1.43,6.85,0,.79-2.53,26.27-2,38.29.39,8.29.91,16.46.11,24.86-.88,9.08-2.8,18-3.63,27-.55,6-5.35,30.46-1.76,58.31,1.75,7.72,3.48,15.44,5.24,23.15,1.86,8.1,8.94,25.29,13.09,54.22.2,1.43,7.8,57.35,9.4,57.11s2-1.45,1.82-2.94c-.77-6.16-8.13-56.44-9.9-72.58-.88-8.13-2.75-16.14-2.64-24.37,0,0,.62-23.72.3-31.91-.31-7.79-.92-15.57-1.49-23.35-.33-4.48-4-34.73-5.88-39.81-1.52-4.23-.84-9.37-.63-14.08.22-5,1.79-22.8,1.38-26.81-1.57-15.31-1.46-30.62,1.37-45.83.37-2,.44-4.87,2.12-6,1.42.35,10,2.47,12.47,3.56,3.86,1.68,7.44,3.69,9.59,7.81A63.66,63.66,0,0,1,219,94c2,8.39,2.53,17,2.54,25.6,0,31.2,1.16,62.46-1.49,93.59-1.09,12.8,1.77,39.68,2.35,42.64,2.92,14.81,2.71,29.81,1.8,44.68-1.06,17.38-3.54,34.68-5.45,52-.17,1.55,0,2.72,1.75,2.88s5.6-42,6.77-50.92C230.4,280.31,222.79,233.44,222.8,233Zm-168-41.56c.63,15.75-7.17,71.66-8.36,73.15-.31-2,.58-38.5,1.05-46.53.54-9.22,1-24.53,3.13-32.89.32-1.28,1.3-15.69,2.09-17.76C53.68,169,54.76,189.38,54.84,191.48ZM148,61.77c-12.17,7.51-25.31,10.39-39.42,7.95-6.11-1.06-20.94-7.09-21.38-9.91,5.83-3.27,8.81-10.55,9.4-15.67.22-1.83,1.94-20.66,2.09-21.95C104,25.33,112.32,31.6,119.8,32.4c2.51.45,4.86-.26,7.33-.92,5-1.33,11.31-7.2,15.49-11.38,0,2.09,0,8,0,9.41.16,6.06,0,18.81,4.18,24A8.64,8.64,0,0,0,152,57.72C152,59.43,149.5,60.87,148,61.77Zm41.61,140.16c0,14.63,1.86,54.76,1.3,52.8-1.31-4.55-2.62-9.11-3.77-13.71-1-4.1-5.89-19.23-6.42-37.05-.07-2.21.53-21.68.53-29.21,0-4.18,1.54-15.63,2.09-16.72C183.71,158.07,189.65,187.27,189.65,201.93Z"/></svg>