<svg xmlns="http://www.w3.org/2000/svg" width="24" height="20" viewBox="0 0 24 20">
  <g id="share_1_" data-name="share (1)" transform="translate(0 -0.5)">
    <path id="Path_5334" data-name="Path 5334" d="M195.785.653a.529.529,0,0,0-.9.375V3.849a7.222,7.222,0,0,0-4.5,1.494A8.014,8.014,0,0,0,187.6,10a8.206,8.206,0,0,0-.094,2.684v0l0,.024.112.646a.529.529,0,0,0,.974.182l.337-.561a7.426,7.426,0,0,1,3.831-3.388,5.556,5.556,0,0,1,2.121-.311V12.2a.529.529,0,0,0,.9.373l5.586-5.615a.529.529,0,0,0,0-.748Zm0,0" transform="translate(-177.527)" fill="#fff"/>
    <path id="Path_5335" data-name="Path 5335" d="M22.063,70.769a.515.515,0,0,0-.529.5v2.113a1.546,1.546,0,0,1-1.586,1.5H2.643a1.546,1.546,0,0,1-1.586-1.5V61.472a1.546,1.546,0,0,1,1.586-1.5H6.3a.5.5,0,1,0,0-1H2.643A2.577,2.577,0,0,0,0,61.472v11.91a2.578,2.578,0,0,0,2.643,2.5H19.948a2.578,2.578,0,0,0,2.643-2.5V71.269A.515.515,0,0,0,22.063,70.769Zm0,0" transform="translate(0 -55.382)" fill="#fff"/>
  </g>
</svg>
