<svg id="invisible" xmlns="http://www.w3.org/2000/svg" width="24" height="20.723" viewBox="0 0 24 20.723">
  <g id="Group_5142" data-name="Group 5142" transform="translate(0 0)">
    <g id="Group_5141" data-name="Group 5141">
      <path id="Path_5378" data-name="Path 5378" d="M231.147,160.069l3.436,3.436.016-.18a3.275,3.275,0,0,0-3.272-3.272Z" transform="translate(-219.33 -153.509)"/>
      <path id="Path_5379" data-name="Path 5379" d="M154,66.781a5.455,5.455,0,0,1,5.453,5.453,5.369,5.369,0,0,1-.387,1.99l3.19,3.19A12.953,12.953,0,0,0,166,72.234a12.906,12.906,0,0,0-12-8.18,12.755,12.755,0,0,0-4.346.763l2.356,2.35A5.481,5.481,0,0,1,154,66.781Z" transform="translate(-142.004 -62.418)"/>
      <path id="Path_5380" data-name="Path 5380" d="M1.091,33.444,3.577,35.93l.5.5A12.918,12.918,0,0,0,0,41.869a12.884,12.884,0,0,0,16.78,7.258l.464.464,3.179,3.185,1.391-1.385L2.481,32.053ZM7.122,39.47l1.685,1.685a3.456,3.456,0,0,0-.082.714A3.275,3.275,0,0,0,12,45.141a3.362,3.362,0,0,0,.709-.082l1.685,1.685A5.365,5.365,0,0,1,12,47.322,5.418,5.418,0,0,1,7.122,39.47Z" transform="translate(0 -32.053)"/>
    </g>
  </g>
</svg>
