<svg xmlns="http://www.w3.org/2000/svg" width="18" height="24" viewBox="0 0 18 24">
  <g id="placeholder-filled-point" transform="translate(-12.883)">
    <path id="Path_5408" data-name="Path 5408" d="M21.883,0a8.929,8.929,0,0,0-9,8.836,8.486,8.486,0,0,0,.787,3.607c2.25,4.834,6.564,9.938,7.833,11.387a.507.507,0,0,0,.759,0c1.268-1.449,5.583-6.552,7.834-11.387a8.482,8.482,0,0,0,.787-3.607A8.93,8.93,0,0,0,21.883,0Zm0,13.425a4.638,4.638,0,0,1-4.675-4.59,4.676,4.676,0,0,1,9.35,0A4.638,4.638,0,0,1,21.883,13.425Z" transform="translate(0)" fill="#fff"/>
  </g>
</svg>
