<svg xmlns="http://www.w3.org/2000/svg" width="24" height="22" viewBox="0 0 24 22">
  <g id="interface_1_" data-name="interface (1)" transform="translate(0 -17.959)">
    <path id="Path_5426" data-name="Path 5426" d="M23.853,31.322l-4.241,7.832a1.68,1.68,0,0,1-1.25.8l-17.008,0A1.371,1.371,0,0,1,.4,39.572a1.306,1.306,0,0,1-.4-.934L0,25.751A1.338,1.338,0,0,1,1.355,24.43H2.6v1.126H1.767a.622.622,0,0,0-.434.175.593.593,0,0,0-.18.424v12.08a.607.607,0,0,0,.614.6H2.62L6.639,30.9a1.36,1.36,0,0,1,1.11-.8h9.843l0-3.193a1.242,1.242,0,0,1,1.15,1.22V30.1h4.515A.752.752,0,0,1,23.853,31.322ZM3.383,34.84c-.037-3.949,0-15.8,0-15.8a1.1,1.1,0,0,1,1.11-1.084h8.891a.514.514,0,0,1,.375.16l2.874,3.047a.492.492,0,0,1,.134.336V29.4h-.933V22.185a.229.229,0,0,0-.232-.226H13.4a.461.461,0,0,1-.467-.455V19.1a.229.229,0,0,0-.232-.226H4.494a.176.176,0,0,0-.178.174v14.8L3.6,35.255S3.387,35.24,3.383,34.84ZM13.87,21.049h1.385L13.87,19.58v1.469Zm.505,1.836H5.782a.56.56,0,1,0,0,1.12h8.593a.56.56,0,1,0,0-1.12Zm.574,3.82a.567.567,0,0,0-.574-.559H5.782a.56.56,0,1,0,0,1.119h8.593A.567.567,0,0,0,14.949,26.706ZM5.208,29.989a.567.567,0,0,0,.574.559h.206a1.712,1.712,0,0,1,1.262-1.119H5.782A.568.568,0,0,0,5.208,29.989Z" transform="translate(0)" fill="#fff"/>
  </g>
</svg>
