<svg id="Layer_1" data-name="Layer 1" xmlns="http://www.w3.org/2000/svg" viewBox="0 0 240 360"><title>g-1</title><path d="M111.75,328.64C88.3,352,59.05,346.36,29.62,337.93c-6.88-2-8.41-8-8.44-14.67-.11-24.42-.56-48.84-.62-73.26-.07-33.21-6.75-65.44-13.66-97.68-.54-2.5.5-7.13,2.25-8.07,26-13.94,30-36.41,24.94-62.56C30.64,63.74,27.23,45.78,23.7,27.85c-1.05-5.34-.36-8.63,6.27-9.19C44.54,17.44,59.05,15.48,73.6,14a9.56,9.56,0,0,1,5.08,1.52c24.5,13.77,49.54,11.93,75.26,3.68a83.92,83.92,0,0,1,26.51-3.92c12.37.21,24.72,2.41,38.15,3.87-.63,4.46-1.09,8-1.62,11.43-3.69,24.08-7.64,48.12-11,72.24-1.86,13.23,4.83,23.58,15.07,30.34,13.13,8.67,13.41,18.41,11.09,33.17-5.87,37.25-8.61,75-12.16,112.61-1.11,11.82-.94,23.77-1.12,35.66-.18,11.34-5.14,18.47-16.07,22.75-20.46,8-41.35,11.57-62.6,5.76C130.69,340.53,122.24,334.14,111.75,328.64ZM112.84,295a82.79,82.79,0,0,0,1.18,9c4.35,18.32,12.21,33.46,33.46,36.19,18.84,2.42,37.38.93,54.68-6.92,4.2-1.91,8.17-8.54,8.77-13.43,1.82-14.8,2.34-29.81,2.63-44.75.79-39.73,3.17-79.27,13.39-117.91,1.63-6.15.09-10.36-5.06-14-21.06-14.74-26.86-34.57-21.07-59.34,4.54-19.44,7.12-39.34,10.7-59.73l-40.93-4.78c-2.44,28.43-4.46,55.14-7.07,81.79-3.16,32.13-19.57,56.75-45.29,75.17-7.81,5.58-9.41,11.67-7.24,21.19,9.68-12.26,16.93-1.77,26.21,1.64-5.13,3-9.14,6.82-13.72,7.73-4.22.84-9-1.4-12.29-2v78.56c11-8.38,17.36-1.57,24.43,2.9-3.5,2.55-6.29,5.55-9.71,6.83C122.15,294.56,117.8,294.38,112.84,295ZM68.78,19l-38.4,5.29C34,44.87,37.37,64.64,41,84.37c4.26,23.44.2,43.72-21.21,57.66-.26.17-.62.32-.72.56-1.52,3.86-5,8.17-4.22,11.55,10.7,48.58,12.24,97.9,13,147.34.52,34.8-2.8,33.91,36.9,39.26,8.73,1.17,18.38-.41,26.95-2.95,13.48-4,19-16,16.52-29.41a206.26,206.26,0,0,1-3.35-29.94c-1-26.82-1.15-53.66-2.25-80.47-.43-10.26,1.45-18.77,10.57-24.51a32.87,32.87,0,0,1,4.75-2.09C82.19,127.11,78.33,115,68.78,19Zm53.4,145A77.87,77.87,0,0,0,150,126.9c12.22-34,12.48-69.3,11.85-104.73,0-.41-.79-.81-1.66-1.64-27.31,10-55.14,11.91-82.67-.43C67.68,54.29,95.38,142.91,122.18,164Z"/><path d="M161.66,346.48a81.38,81.38,0,0,1-21.61-2.87c-6.49-1.77-12.53-5.33-18.93-9.09-3-1.75-6-3.55-9.28-5.26-23.76,23.4-53.71,17.36-82.36,9.15-7.84-2.25-8.77-9.72-8.8-15.15-.05-11.28-.18-22.75-.3-33.85-.14-12.92-.29-26.27-.32-39.41-.07-34.28-7.29-67.91-13.65-97.58-.54-2.51.38-7.47,2.5-8.61,22.64-12.13,30.48-31.84,24.69-62L31.33,69.93c-2.64-13.76-5.37-28-8.12-42-.49-2.51-.8-5.33.66-7.26,1.09-1.45,3.07-2.27,6.06-2.52,8.66-.73,17.45-1.74,25.94-2.71,5.79-.66,11.78-1.34,17.68-1.94a9.65,9.65,0,0,1,5.37,1.59c21.38,12,45.16,13.17,74.86,3.64a84.1,84.1,0,0,1,26.68-3.95c8.63.15,17.16,1.25,26.2,2.41,3.88.5,7.91,1,12,1.47a.46.46,0,0,1,.34.19.45.45,0,0,1,.1.37c-.2,1.48-.39,2.84-.57,4.14-.37,2.63-.69,5-1.05,7.29Q215.78,41.74,214,52.8c-2.57,16.41-5.23,33.38-7.57,50.11-1.65,11.83,3.62,22.43,14.86,29.86,14,9.22,13.49,19.77,11.3,33.66-4.66,29.56-7.39,59.95-10,89.33q-1,11.63-2.13,23.25c-.87,9.22-.95,18.68-1,27.83,0,2.6,0,5.19-.08,7.79-.18,11.52-5.39,18.9-16.39,23.2C188.21,343.61,174.54,346.48,161.66,346.48Zm-49.91-18.34a.49.49,0,0,1,.23.06c3.4,1.78,6.58,3.65,9.65,5.46,6.34,3.73,12.32,7.25,18.69,9,18.85,5.16,39.23,3.28,62.27-5.75,10.72-4.2,15.58-11.07,15.76-22.29,0-2.59.06-5.19.08-7.78.09-9.17.17-18.65,1-27.92.73-7.74,1.42-15.49,2.12-23.24,2.64-29.4,5.37-59.8,10-89.4,2.47-15.64,1.47-24.52-10.86-32.67-11.58-7.64-17-18.6-15.3-30.83,2.34-16.74,5-33.71,7.57-50.12q1.74-11.07,3.45-22.13c.35-2.32.68-4.65,1-7.28.16-1.14.32-2.34.5-3.63-3.92-.43-7.77-.93-11.5-1.41a236.91,236.91,0,0,0-26.09-2.4,82.88,82.88,0,0,0-26.35,3.9c-30,9.62-54,8.44-75.66-3.72a8.74,8.74,0,0,0-4.78-1.46c-5.9.59-11.88,1.27-17.66,1.94-8.51,1-17.3,2-26,2.7-2.7.23-4.45.92-5.35,2.13s-1.11,3.22-.48,6.46c2.75,14,5.48,28.23,8.12,42L34.58,81.6c5.89,30.68-2.12,50.73-25.2,63.09-1.39.75-2.53,5-2,7.52C13.76,181.93,21,215.62,21.06,250c0,13.14.18,26.5.32,39.41.12,11.1.25,22.57.3,33.85,0,8.23,2.53,12.61,8.07,14.19,28.47,8.16,58.23,14.18,81.64-9.15A.51.51,0,0,1,111.75,328.14Zm51.83,13.65a128.08,128.08,0,0,1-16.16-1.08c-22.9-2.95-30-20.14-33.89-36.57a46.73,46.73,0,0,1-.88-6.2c-.09-1-.19-1.93-.31-2.89a.55.55,0,0,1,.1-.37.48.48,0,0,1,.34-.18c1.57-.2,3.08-.31,4.54-.42a30.73,30.73,0,0,0,8.41-1.39,23.9,23.9,0,0,0,6.44-4.28c.83-.68,1.68-1.37,2.57-2.05-.74-.48-1.47-1-2.2-1.48-6.06-4.16-11.8-8.1-21-1.05a.49.49,0,0,1-.53.05.5.5,0,0,1-.28-.45V204.87a.49.49,0,0,1,.18-.38.53.53,0,0,1,.42-.11c.94.18,2,.5,3.13.83,2.84.83,6.06,1.78,9,1.2s5.92-2.58,9-4.67c1.2-.82,2.43-1.66,3.74-2.47a49.19,49.19,0,0,1-5.91-3.16c-6.36-3.79-11.85-7.06-18.79,1.73a.47.47,0,0,1-.5.18.49.49,0,0,1-.38-.38c-2.3-10.14-.22-16.23,7.44-21.71,26.93-19.29,42.1-44.46,45.08-74.81,1.8-18.34,3.3-36.46,4.88-55.65.71-8.58,1.43-17.27,2.19-26.13a.52.52,0,0,1,.18-.35.57.57,0,0,1,.37-.11l40.93,4.78a.55.55,0,0,1,.35.2.53.53,0,0,1,.09.39c-1.11,6.31-2.13,12.66-3.12,18.81-2.29,14.15-4.44,27.51-7.58,40.94-6,25.57.85,44.81,20.87,58.82,5.3,3.72,6.92,8.19,5.25,14.51-10.49,39.66-12.62,80-13.37,117.79-.28,14.44-.8,29.86-2.63,44.8-.6,4.86-4.6,11.8-9.07,13.83A92.39,92.39,0,0,1,163.58,341.79Zm-50.19-46.36c.1.8.18,1.61.25,2.41a45,45,0,0,0,.87,6.07c3.82,16.1,10.74,32.94,33,35.8,20.58,2.65,38.37.4,54.41-6.88,4.17-1.89,7.92-8.44,8.49-13,1.83-14.9,2.34-30.29,2.62-44.69.75-37.81,2.89-78.28,13.41-118,1.57-5.94.11-10-4.87-13.44-20.39-14.27-27.35-33.85-21.27-59.87,3.13-13.39,5.29-26.74,7.57-40.87,1-6,2-12.15,3-18.3L171,19.94c-.74,8.68-1.45,17.2-2.14,25.61-1.59,19.19-3.08,37.32-4.88,55.67-3,30.65-18.32,56.06-45.5,75.52-7.11,5.09-9.13,10.49-7.26,19.68,7.18-8.46,13.13-4.92,19.42-1.17a41.13,41.13,0,0,0,6.69,3.45.53.53,0,0,1,.33.43.51.51,0,0,1-.25.47c-1.6,1-3.09,2-4.54,3-3.13,2.15-6.09,4.18-9.33,4.82s-6.49-.36-9.45-1.22c-.86-.26-1.69-.5-2.44-.68v77c9.37-6.66,15.49-2.46,21.42,1.6.92.64,1.84,1.27,2.77,1.86a.52.52,0,0,1,.24.4.51.51,0,0,1-.21.42c-1.09.8-2.11,1.64-3.1,2.46a25,25,0,0,1-6.73,4.44,31.79,31.79,0,0,1-8.69,1.44C116.1,295.17,114.77,295.27,113.39,295.43Zm-42.6,46.2a45.31,45.31,0,0,1-6.18-.4l-1.48-.2c-35.26-4.74-35.59-5-35.78-32.11,0-2.28,0-4.75-.07-7.43-.74-50-2.29-98.79-13-147.25-.55-2.5,1-5.38,2.47-8.17.64-1.22,1.31-2.48,1.78-3.66a1.44,1.44,0,0,1,.73-.69l.17-.11c19.15-12.47,25.82-30.63,21-57.15-2.48-13.63-4.81-27-7.28-41.19C32.11,37,31,30.73,29.89,24.35A.52.52,0,0,1,30,24a.5.5,0,0,1,.33-.2l38.4-5.3a.48.48,0,0,1,.38.11.49.49,0,0,1,.19.34c9.6,96.45,13.26,107.82,49,152.13a.52.52,0,0,1,.09.44.5.5,0,0,1-.28.34l-1.39.55a18.06,18.06,0,0,0-3.29,1.51C103.65,180,102.69,189.49,103,198c.59,14.13.91,28.51,1.22,42.41.27,12.48.56,25.38,1,38.06a208.63,208.63,0,0,0,3.35,29.87c2.71,14.62-3.76,26.11-16.87,30A75.09,75.09,0,0,1,70.79,341.63ZM31,24.69q1.63,9.3,3.22,18.4C36.64,57.27,39,70.66,41.45,84.28c4.91,27-1.9,45.45-21.43,58.17l-.22.14a1.19,1.19,0,0,0-.31.2,38.93,38.93,0,0,1-1.82,3.75c-1.4,2.63-2.84,5.35-2.37,7.49,10.69,48.54,12.24,97.44,13,147.45,0,2.68.06,5.15.07,7.43.19,26.46.19,26.46,34.92,31.13l1.47.2c7.58,1,16.83,0,26.75-2.92,12.58-3.72,18.77-14.78,16.17-28.85a207.57,207.57,0,0,1-3.36-30c-.48-12.69-.77-25.6-1-38.08-.31-13.9-.63-28.27-1.21-42.39-.37-8.75.64-18.56,10.81-25a19.41,19.41,0,0,1,3.46-1.6l.74-.28C82,127.58,77.79,114.42,68.33,19.54Zm91.22,139.82a.51.51,0,0,1-.31-.11C94.89,143.16,67.22,54.06,77,20a.51.51,0,0,1,.27-.32.49.49,0,0,1,.41,0c25.18,11.29,52.09,11.43,82.3.42a.52.52,0,0,1,.52.11c.3.29.6.53.85.73.55.44.95.77,1,1.26.64,36.11.22,71.3-11.88,104.91a78,78,0,0,1-28,37.34A.54.54,0,0,1,122.18,164.51ZM77.83,20.79C68.59,54.92,95.66,142,122.19,163.38a77,77,0,0,0,27.32-36.65c12-33.45,12.46-68.54,11.82-104.55,0-.06-.35-.3-.59-.5s-.44-.36-.68-.58C129.92,32,103,31.92,77.83,20.79Z"/><path d="M135.69,243.39c-3.29,2.38-5.83,5.46-8.9,6.13A29.29,29.29,0,0,1,113.5,249c-1.1-.29-1.91-7.73-1.14-8.08,4.33-2,9.25-3.79,13.85-3.55C129.38,237.54,132.36,241.14,135.69,243.39Z"/><path d="M121.44,250.56a32.24,32.24,0,0,1-8.07-1.06c-1.23-.33-1.65-4.29-1.75-5.49-.26-3.18.27-3.42.53-3.53,4.27-1.92,9.27-3.86,14.09-3.6,2.33.12,4.46,1.88,6.72,3.75,1,.81,2,1.65,3,2.35a.47.47,0,0,1,.22.4.49.49,0,0,1-.2.42c-1,.74-2,1.57-2.94,2.37-2,1.72-3.94,3.36-6.15,3.83A25.4,25.4,0,0,1,121.44,250.56Zm-8.79-9.21c-.42,1,.37,6.7,1,7.2a28.71,28.71,0,0,0,13,.48c2-.43,3.78-2,5.71-3.63.78-.66,1.59-1.35,2.44-2-.87-.62-1.71-1.32-2.52-2-2.12-1.76-4.13-3.42-6.13-3.52C121.62,237.64,116.79,239.49,112.65,241.35Z"/></svg>