<svg xmlns="http://www.w3.org/2000/svg" width="40" height="32" viewBox="0 0 40 32">
  <g id="home_1_" data-name="home (1)" transform="translate(0.001 -46.994)">
    <g id="Group_4018" data-name="Group 4018" transform="translate(-0.001 46.994)">
      <path id="Path_4725" data-name="Path 4725" d="M79.989,120.939,65.723,132.7a.337.337,0,0,1-.013.074.339.339,0,0,0-.013.074v11.909a1.611,1.611,0,0,0,1.588,1.588h9.527v-9.527h6.352v9.528h9.527a1.613,1.613,0,0,0,1.588-1.589V132.848a.349.349,0,0,0-.025-.148Z" transform="translate(-59.989 -114.346)" fill="#fff"/>
      <path id="Path_4726" data-name="Path 4726" d="M39.724,62.5,34.29,57.985V47.863a.765.765,0,0,0-.794-.794H28.733a.764.764,0,0,0-.794.794V52.7l-6.054-5.062a3.078,3.078,0,0,0-3.771,0L.275,62.5A.721.721,0,0,0,0,63.034a.8.8,0,0,0,.174.583l1.538,1.836a.846.846,0,0,0,.521.273.922.922,0,0,0,.6-.174L20,51.237,37.168,65.553a.765.765,0,0,0,.521.173h.075a.847.847,0,0,0,.521-.273l1.538-1.836A.8.8,0,0,0,40,63.034.723.723,0,0,0,39.724,62.5Z" transform="translate(0.001 -46.994)" fill="#fff"/>
    </g>
  </g>
</svg>
