<svg id="import" xmlns="http://www.w3.org/2000/svg" width="24" height="24" viewBox="0 0 24 24">
  <g id="Group_3810" data-name="Group 3810" transform="translate(0 0)">
    <g id="Group_3809" data-name="Group 3809" transform="translate(0)">
      <path id="Path_4640" data-name="Path 4640" d="M59.143,140H54.571a.479.479,0,1,0,0,.941h4.571a1.59,1.59,0,0,1,1.714,1.412v11.294a1.59,1.59,0,0,1-1.714,1.412H40.857a1.59,1.59,0,0,1-1.714-1.412V142.353a1.59,1.59,0,0,1,1.714-1.412H46A.479.479,0,1,0,46,140H40.857A2.65,2.65,0,0,0,38,142.353v11.294A2.65,2.65,0,0,0,40.857,156H59.143A2.65,2.65,0,0,0,62,153.647V142.353A2.65,2.65,0,0,0,59.143,140Z" transform="translate(-38 -132)" fill="#fff"/>
      <path id="Path_4642" data-name="Path 4642" d="M.171,11.632a.55.55,0,0,0,0,.8L5.2,17.462a.55.55,0,0,0,.8,0l5.034-5.034a.563.563,0,0,0-.8-.8L6.172,15.7V.569a.569.569,0,0,0-1.138,0V15.7L.967,11.632A.55.55,0,0,0,.171,11.632Z" transform="translate(6.397)" fill="#fff"/>
    </g>
  </g>
</svg>
