<svg xmlns="http://www.w3.org/2000/svg" width="23.997" height="24" viewBox="0 0 23.997 24"><defs><style>.a{fill:#fff;}</style></defs><path class="a" d="M18.168,4.471,13.951.207a.869.869,0,0,0-.5-.207H.7A.7.7,0,0,0,0,.7V23.3a.7.7,0,0,0,.7.7H17.672a.7.7,0,0,0,.7-.7V4.969A.877.877,0,0,0,18.168,4.471ZM8.232,16.716,5.419,19.528a.7.7,0,0,1-.994,0L3.019,18.122a.7.7,0,1,1,.994-.994l.909.909,2.315-2.315a.7.7,0,1,1,.994.994Zm0-5.625L5.419,13.9a.7.7,0,0,1-.994,0L3.019,12.5a.7.7,0,1,1,.994-.994l.909.909L7.237,10.1a.7.7,0,1,1,.994.994Zm0-5.625L5.419,8.278a.7.7,0,0,1-.994,0L3.019,6.872a.7.7,0,1,1,.994-.994l.909.909L7.237,4.472a.7.7,0,0,1,.994.994Zm6.628,14.269H10.547a.7.7,0,0,1,0-1.406h4.313a.7.7,0,0,1,0,1.406Zm0-5.625H10.547a.7.7,0,0,1,0-1.406h4.313a.7.7,0,0,1,0,1.406Zm0-5.625H10.547a.7.7,0,0,1,0-1.406h4.313a.7.7,0,0,1,0,1.406Zm-.7-4.219V2.447l1.818,1.818Z"/><path class="a" d="M11159.479,24296.893l-1.4-2.811a.71.71,0,0,1-.073-.316v-12.654a2.106,2.106,0,1,1,4.213,0v12.654a.709.709,0,0,1-.072.316l-1.4,2.811a.714.714,0,0,1-.634.391A.706.706,0,0,1,11159.479,24296.893Zm-.073-15.781v.7h1.408v-.7a.7.7,0,1,0-1.408,0Z" transform="translate(-11138.219 -24274.734)"/></svg>