<svg xmlns="http://www.w3.org/2000/svg" width="20" height="20" viewBox="0 0 20 20">
  <g id="link" transform="translate(0 0)">
    <g id="Group_5174" data-name="Group 5174" transform="translate(6.725 0)">
      <g id="Group_5173" data-name="Group 5173">
        <path id="Path_5401" data-name="Path 5401" d="M184.061,1.373a4.687,4.687,0,0,0-6.629,0l-3.918,3.918a4.732,4.732,0,0,0,0,6.629,4.461,4.461,0,0,0,.942.715l.715-.715a1.61,1.61,0,0,0,.3-1.413,2.262,2.262,0,0,1-.3-.244,2.369,2.369,0,0,1,0-3.315L179.09,3.03A2.344,2.344,0,0,1,182.4,6.345l-2.59,2.59a6.746,6.746,0,0,1,.293,3.015c.011-.011.025-.018.036-.029L184.061,8A4.688,4.688,0,0,0,184.061,1.373Z" transform="translate(-172.159 0)" fill="#fff"/>
      </g>
    </g>
    <g id="Group_5176" data-name="Group 5176" transform="translate(0 7.061)">
      <g id="Group_5175" data-name="Group 5175">
        <path id="Path_5402" data-name="Path 5402" d="M12.224,181.491a4.462,4.462,0,0,0-.942-.715l-.715.715a1.61,1.61,0,0,0-.3,1.413,2.258,2.258,0,0,1,.3.244,2.369,2.369,0,0,1,0,3.315l-4.221,4.221a2.344,2.344,0,1,1-3.315-3.315l2.893-2.893a6.745,6.745,0,0,1-.293-3.015c-.011.011-.025.018-.036.03l-4.221,4.221A4.688,4.688,0,0,0,8,192.342l4.221-4.221A4.729,4.729,0,0,0,12.224,181.491Z" transform="translate(0 -180.776)" fill="#fff"/>
      </g>
    </g>
  </g>
</svg>
