<svg xmlns="http://www.w3.org/2000/svg" width="24" height="18.065" viewBox="0 0 24 18.065">
  <g id="list" transform="translate(0 -7.434)">
    <path id="Path_5397" data-name="Path 5397" d="M31.166,48.288H15.118a1.2,1.2,0,0,1,0-2.4H31.166a1.2,1.2,0,0,1,0,2.4Z" transform="translate(-8.363 -23.107)"/>
    <path id="Path_5398" data-name="Path 5398" d="M31.166,29.457H15.118a1.2,1.2,0,0,1,0-2.4H31.166a1.2,1.2,0,0,1,0,2.4Z" transform="translate(-8.363 -11.793)"/>
    <path id="Path_5399" data-name="Path 5399" d="M31.166,10.626H15.118a1.2,1.2,0,0,1,0-2.4H31.166a1.2,1.2,0,0,1,0,2.4Z" transform="translate(-8.363 -0.479)"/>
    <circle id="Ellipse_641" data-name="Ellipse 641" cx="1.608" cy="1.608" r="1.608" transform="translate(0 7.434)"/>
    <circle id="Ellipse_642" data-name="Ellipse 642" cx="1.608" cy="1.608" r="1.608" transform="translate(0 14.858)"/>
    <circle id="Ellipse_643" data-name="Ellipse 643" cx="1.608" cy="1.608" r="1.608" transform="translate(0 22.283)"/>
  </g>
</svg>
