<svg id="location_3_" data-name="location (3)" xmlns="http://www.w3.org/2000/svg" width="38.068" height="48" viewBox="0 0 38.068 48">
  <path id="Path_5365" data-name="Path 5365" d="M96.364,406.781H126.3L123.358,399h-7.725c-1.724,2.426-3.019,4.218-3.164,4.418H110.19c-.145-.2-1.44-1.992-3.164-4.418H99.3Z" transform="translate(-92.296 -361.594)" fill="#fff"/>
  <path id="Path_5366" data-name="Path 5366" d="M52.969,48H91.037L85.975,34.594h-7.68c2.868-4.078,6.11-8.794,7.4-11.06a15.749,15.749,0,1,0-27.385,0c1.291,2.266,4.533,6.981,7.4,11.06h-7.68ZM72,2.813A12.94,12.94,0,0,1,83.252,22.142C81.341,25.5,74.691,34.843,72,38.592c-2.688-3.749-9.337-13.094-11.249-16.45A12.94,12.94,0,0,1,72,2.813Zm-1.14,39.012h2.279c.145-.2,1.44-1.992,3.164-4.418h7.725l2.938,7.781H57.037l2.938-7.781H67.7C69.424,39.832,70.719,41.624,70.864,41.824Z" transform="translate(-52.969 0)"/>
  <path id="Path_5367" data-name="Path 5367" d="M119.7,49.329c1.912,3.355,8.561,12.7,11.249,16.45,2.688-3.749,9.337-13.095,11.249-16.45a12.936,12.936,0,1,0-22.5,0ZM130.95,33.781a9.142,9.142,0,1,1-9.142,9.142,9.153,9.153,0,0,1,9.142-9.142Z" transform="translate(-111.916 -27.187)" fill="#fff"/>
  <circle id="Ellipse_614" data-name="Ellipse 614" cx="6.33" cy="6.33" r="6.33" transform="translate(10.747 19.105) rotate(-67.05)" fill="#fff"/>
  <path id="Path_5368" data-name="Path 5368" d="M167.624,88.618a9.142,9.142,0,1,0-9.142-9.142A9.153,9.153,0,0,0,167.624,88.618Zm0-15.472a6.33,6.33,0,1,1-6.33,6.33A6.337,6.337,0,0,1,167.624,73.145Z" transform="translate(-148.59 -63.739)"/>
</svg>
