<svg xmlns="http://www.w3.org/2000/svg" width="72" height="40" viewBox="0 0 72 40">
  <g id="Group_5296" data-name="Group 5296" transform="translate(-307.001 -1033.901)">
    <path id="Path_4854" data-name="Path 4854" d="M343.033,1033.9h31.091c1.072,0,1.072,0,1.231,1.055a3.056,3.056,0,0,0,2.706,2.666c.725.065.943.365.94,1.082q-.033,7.222,0,14.444c0,.644-.185.929-.851,1.012a3.027,3.027,0,0,0-2.812,2.95c-.061.565-.311.815-.855.79-.186-.009-.373,0-.56,0H311.948c-1.11,0-1.11,0-1.307-1.141a3.052,3.052,0,0,0-2.714-2.582c-.722-.083-.931-.381-.927-1.093q.036-7.186,0-14.372c0-.71.2-1.021.935-1.087a3.065,3.065,0,0,0,2.724-2.732c.134-.987.135-.989,1.142-.989ZM312,1056.753c.048,0,.255.025.461.025q30.537,0,61.074.012c.461,0,.687-.1.829-.6a4.007,4.007,0,0,1,2.975-3.012c.362-.092.547-.232.546-.666q-.022-6.616,0-13.231c0-.435-.194-.549-.556-.653a4.188,4.188,0,0,1-3.005-3.1c-.044-.154-.094-.307-.14-.457h-62.37a4.449,4.449,0,0,1-3.611,3.7,1.06,1.06,0,0,0-.053.2c-.005,4.53,0,9.059-.021,13.589,0,.469.305.478.59.637a7.925,7.925,0,0,1,2.016,1.316A11.107,11.107,0,0,1,312,1056.753Z" transform="translate(0)" fill="#fff"/>
    <path id="Path_4855" data-name="Path 4855" d="M444.073,1219.967h17.273c.6,0,.6,0,.684.593a1.708,1.708,0,0,0,1.5,1.5c.4.036.524.205.522.608q-.019,4.062,0,8.125c0,.362-.1.522-.473.569a1.693,1.693,0,0,0-1.562,1.659c-.034.318-.173.459-.475.444-.1,0-.207,0-.311,0H426.8c-.617,0-.617,0-.726-.642a1.7,1.7,0,0,0-1.508-1.452c-.4-.046-.517-.214-.515-.615q.02-4.042,0-8.084c0-.4.114-.574.52-.612a1.713,1.713,0,0,0,1.513-1.537c.075-.555.075-.556.634-.556Zm-17.243,12.854c.027,0,.141.014.256.014q16.965,0,33.93.007c.256,0,.382-.057.46-.338a2.24,2.24,0,0,1,1.653-1.694c.2-.052.3-.131.3-.375q-.013-3.721,0-7.442c0-.245-.108-.309-.309-.367a2.342,2.342,0,0,1-1.669-1.742c-.024-.087-.052-.172-.078-.257h-34.65a2.488,2.488,0,0,1-2.006,2.083.6.6,0,0,0-.03.112c0,2.548,0,5.1-.012,7.644,0,.264.169.269.328.358a4.4,4.4,0,0,1,1.12.74A6.273,6.273,0,0,1,426.829,1232.821Z" transform="translate(-101.054 -159.566)" fill="#fff"/>
    <path id="Path_4856" data-name="Path 4856" d="M567.836,1242.22a4.214,4.214,0,0,1,1.341-3.384,3.525,3.525,0,0,1,.376-.3,3.834,3.834,0,0,1,5.86,2.454,6.15,6.15,0,0,1-.071,2.814,3.81,3.81,0,0,1-7.434-.673C567.877,1242.832,567.859,1242.526,567.836,1242.22Zm6.036.02a3.512,3.512,0,0,0-.1-.871,3.177,3.177,0,0,0-.178-.612,2.04,2.04,0,0,0-3.8-.029,4.124,4.124,0,0,0,0,3.045,1.987,1.987,0,0,0,1.925,1.3,1.951,1.951,0,0,0,1.883-1.351A3.429,3.429,0,0,0,573.872,1242.24Z" transform="translate(-224.345 -174.998)" fill="#fff"/>
    <path id="Path_4857" data-name="Path 4857" d="M674.082,1071.283c.048-2.3.513-4.415,2.373-5.987a6.2,6.2,0,0,1,.665-.523,6.784,6.784,0,0,1,10.368,4.342,10.886,10.886,0,0,1-.126,4.98c-.85,3.259-3.562,4.989-7.069,4.765a6.327,6.327,0,0,1-6.084-5.956C674.154,1072.365,674.124,1071.823,674.082,1071.283Zm10.68.036a6.212,6.212,0,0,0-.181-1.541,5.643,5.643,0,0,0-.315-1.082,3.609,3.609,0,0,0-6.723-.051,7.3,7.3,0,0,0-.008,5.388,3.515,3.515,0,0,0,3.405,2.308,3.452,3.452,0,0,0,3.331-2.391A6.064,6.064,0,0,0,684.762,1071.319Z" transform="translate(-315.89 -25.555)" fill="#fff"/>
    <path id="Path_4858" data-name="Path 4858" d="M465.116,1071.283c.048-2.3.513-4.415,2.373-5.987a6.2,6.2,0,0,1,.665-.523,6.784,6.784,0,0,1,10.368,4.342,10.886,10.886,0,0,1-.126,4.98c-.85,3.259-3.563,4.989-7.069,4.765a6.327,6.327,0,0,1-6.084-5.956C465.188,1072.365,465.158,1071.823,465.116,1071.283Zm10.68.036a6.212,6.212,0,0,0-.181-1.541,5.641,5.641,0,0,0-.315-1.082,3.609,3.609,0,0,0-6.723-.051,7.3,7.3,0,0,0-.008,5.388,3.515,3.515,0,0,0,3.405,2.308,3.452,3.452,0,0,0,3.331-2.391A6.065,6.065,0,0,0,475.8,1071.319Z" transform="translate(-136.023 -25.555)" fill="#fff"/>
    <path id="Path_4859" data-name="Path 4859" d="M373.352,1075.552h2.924a11.686,11.686,0,0,1-.338,1.372c-1.1,2.916-3.8,4.292-7.183,3.7a5.5,5.5,0,0,1-4.342-3.458,9.376,9.376,0,0,1,.143-7.9,5.8,5.8,0,0,1,5.888-3.37,5.686,5.686,0,0,1,5.465,3.341,11.57,11.57,0,0,1,.471,1.656c-1.028,0-1.918.018-2.806-.019-.135-.006-.317-.248-.379-.417a2.846,2.846,0,0,0-2.861-2.005,2.978,2.978,0,0,0-2.973,1.886,7.424,7.424,0,0,0-.183,5.659,3.191,3.191,0,0,0,3.144,2.2,2.938,2.938,0,0,0,2.892-2.273Z" transform="translate(-48.591 -27.458)" fill="#fff"/>
    <path id="Path_4860" data-name="Path 4860" d="M585.227,1075.268a5.874,5.874,0,0,1-3.217,4.64,6.913,6.913,0,0,1-7.189-.922,6.75,6.75,0,0,1-2.064-4.161c-.324-2.5-.156-4.92,1.481-7,2.659-3.375,8.638-2.843,10.511.933a14.32,14.32,0,0,1,.614,1.873c-1.05,0-1.935.018-2.818-.019-.139-.006-.329-.238-.39-.4a2.857,2.857,0,0,0-2.851-2.021,2.974,2.974,0,0,0-2.985,1.865,7.185,7.185,0,0,0-.144,5.781,3.148,3.148,0,0,0,5.207,1.188,7.908,7.908,0,0,0,.776-1.33c.1-.16.249-.4.384-.405C583.409,1075.25,584.276,1075.268,585.227,1075.268Z" transform="translate(-228.501 -27.196)" fill="#fff"/>
    <path id="Path_4861" data-name="Path 4861" d="M513.856,1244.616v3.5h-1.664v-8h1.645v2.963h3.108v-2.943h1.671v8.006H517v-3.529Z" transform="translate(-176.479 -176.886)" fill="#fff"/>
    <path id="Path_4862" data-name="Path 4862" d="M456.2,1243.637a8.441,8.441,0,0,1,1.2.016.744.744,0,0,1,.484.357,2.154,2.154,0,0,0,2.989.6.8.8,0,0,0-.188-1.386,11.616,11.616,0,0,0-1.559-.449c-.364-.1-.739-.158-1.1-.272-1.145-.364-1.625-.916-1.7-1.916a2.318,2.318,0,0,1,1.424-2.459,3.863,3.863,0,0,1,3.963.422,2.192,2.192,0,0,1,.839,1.93,10.406,10.406,0,0,1-1.231-.016.682.682,0,0,1-.438-.331,1.833,1.833,0,0,0-2.61-.607.746.746,0,0,0,.193,1.375c.731.257,1.5.42,2.249.614,1.6.414,2.182,1.079,2.122,2.447a2.552,2.552,0,0,1-2.424,2.347,4.354,4.354,0,0,1-3.134-.543A2.349,2.349,0,0,1,456.2,1243.637Z" transform="translate(-128.324 -174.876)" fill="#fff"/>
    <path id="Path_4863" data-name="Path 4863" d="M631.5,1239.87c1.41,0,2.8-.1,4.174.027s2.012,1.049,2,2.532c-.01,1.529-.6,2.308-2.014,2.51a12.449,12.449,0,0,1-1.973.055c-.4-.007-.539.148-.529.539.019.771.006,1.543.006,2.359H631.5Zm1.709,3.676a17.93,17.93,0,0,0,1.923-.015c.583-.064.793-.52.813-1.073s-.137-1.051-.719-1.131a15.007,15.007,0,0,0-2.017-.021Z" transform="translate(-279.092 -176.642)" fill="#fff"/>
  </g>
</svg>
