<svg id="Layer_1" data-name="Layer 1" xmlns="http://www.w3.org/2000/svg" viewBox="0 0 240 360"><title>m-1</title><path d="M186.11,164.77c0,23-.86,46.06.2,69,1.62,35,4.56,70,7,105,.28,4.08-1.13,6.12-5.35,7.1-32.23,7.46-64.65,11.82-97.75,7.18-11.42-1.61-22.8-3.53-34.26-4.59-6.26-.58-7.75-3.4-7.42-9.05,1.81-31.61,3.92-63.22,5-94.87.79-23.92.16-47.9-1-71.92-.78,14.89-1.65,29.78-2.34,44.67-.73,15.94-1.43,31.88-1.86,47.83-.12,4.45-1.72,7.42-6.09,7.57-9.73.33-19.48.43-29.19-.1-1.63-.09-4.44-3.83-4.38-5.8.89-28.21,1.62-56.44,3.53-84.59,2.13-31.58,5.38-63.08,8.22-94.61.44-4.87,1.17-9.74,2-14.56,2.34-13,8-23.18,22.23-26.11,1.43-.3,2.79-1,4.22-1.28,16.81-3.9,29.74-12.1,39.25-27.59C96.9,3.88,113.28,4.6,128,5.31c12.2.59,21.13,7.22,26.43,18.32,3.66,7.68,9.76,11.53,17.91,13.61,8.75,2.24,17.15,5.86,25.79,8.62,8.23,2.63,12.58,8.33,15.48,16.29,7.8,21.46,11.35,43.79,12.58,66.31,2.38,43.36,3.61,86.8,5.07,130.21.39,11.94-1,13.08-13.22,14.58-1.22.15-2.43.43-3.65.47-20.32.71-22.31-1.24-23-20.79-.85-25-1.94-50.05-3-75.07-.19-4.36-.88-8.7-1.34-13.05ZM161.72,45.57c9.56,5,6.93,10,3.61,15Q141.89,95.81,118.43,131c-1.3,2-2.71,4.35-2.76,6.56-.36,15.63-.4,31.26-.52,46.88-.4,52.78-.67,105.56-1.32,158.34-.09,7.23,2.53,9,9.1,8.16,19.18-2.58,38.38-5.09,57.61-7.26,5.34-.61,7-2.72,6.72-8-1.38-22.77-2.33-45.57-3.69-68.35-1.59-26.94-5.52-53.93-4.63-80.77,1-30.05,5.93-60,9.85-89.89,2-15.19,5.53-30.18,8.43-45.61-8.92-3.15-17.58-6.55-26.49-9.11C168.76,41.41,165.94,43.79,161.72,45.57ZM73.49,47.12l-.38-1.78c-2-.64-4.34-2.23-6.08-1.75a187.75,187.75,0,0,0-21.6,7.16c-1.59.65-3.28,4.09-3,5.92C46.94,83.48,53,110.1,56.12,137.06c3.14,27.21,5.06,54.79,4.56,82.15-.7,39-4,77.9-6.48,116.82-.38,6,1.54,8.65,7.17,9.33q19,2.29,37.93,4.7c9,1.13,9.06,1.14,9.09-7.83.2-56.21.26-112.42.69-168.62.12-15.2.8-30.45,2.41-45.54.63-5.92-.29-10-3.67-14.73C95.24,95.81,83.1,78,70.79,60.24,67.35,55.3,65.29,50.55,73.49,47.12ZM205,57.76l-3.35.55c-4.16,24.38-11.3,48.19-9.88,73.55,2.23,39.94,3.7,79.93,5.08,119.92.57,16.71.1,16.73,16.58,18.89,10.66,1.39,12.68-.14,12.37-11.15-1.14-40.23-1.69-80.51-4.13-120.66-1.24-20.45-5.68-40.74-9.41-61C211,71,207.45,64.46,205,57.76Zm-167.82.38-2.42.27C27.26,69,26.21,81.58,25.12,93.94c-3,34.2-5.95,68.41-8.49,102.65-1.53,20.55-2.5,41.14-3.28,61.72C13,267.2,16.2,270.14,25,271.08c15.42,1.63,17.92-.48,18.45-16.14,1.08-31.38,2-62.78,3.09-94.16C47,145.22,48,129.66,48.06,114.1c0-6-1.46-12.15-2.69-18.15C42.77,83.32,39.9,70.74,37.14,58.14ZM118.2,98.89c2.19-3,3.22-4,3.76-5.18,5.09-11.38,10.65-22.59,15-34.27A123,123,0,0,0,144,31.94c1.6-13.34-7.52-22.67-21-22.53A59.19,59.19,0,0,0,107.12,12c-9.71,2.84-14.37,10.42-12.38,20.32C96.67,41.9,98.67,51.57,102,60.7,106.51,73.18,112.31,85.2,118.2,98.89Zm3.12,19.39c.79-1.11,1.62-2.19,2.37-3.33l31.76-47.68c9.1-13.64,11.92-12.06-6.51-22.57C139.93,69.24,125.72,91.71,121.32,118.28Zm-48-65.4,39.87,58.92,3-1.31c-.41-2.25-.39-4.69-1.3-6.72-4.69-10.53-9.91-20.83-14.38-31.45-4.06-9.64-7.39-19.59-11.31-30.11ZM86.83,28.27,79,40.47l2.25,1.41C85.44,38.73,90.83,36.35,86.83,28.27Z"/><path d="M136.52,183.73c-3.13,1.88-5.4,4.15-8,4.56a18.41,18.41,0,0,1-9.71-1.23c-.92-.4-1-6.29-.07-6.8a17.52,17.52,0,0,1,9.84-1.88C131.1,178.73,133.26,181.4,136.52,183.73Z"/><path d="M136.69,141.13c-3.7,1.9-6.64,4.22-9.9,4.82a12.92,12.92,0,0,1-8.55-1.92c-.89-.57-.4-5.92.91-6.72a14.14,14.14,0,0,1,9.25-1.78C131.09,136.05,133.35,138.76,136.69,141.13Z"/><path d="M134.88,227H121.51l0-3.17h13.37Z"/></svg>