<svg xmlns="http://www.w3.org/2000/svg" width="16" height="15.983" viewBox="0 0 16 15.983">
  <g id="pencil" transform="translate(0 -0.246)">
    <path id="Path_5381" data-name="Path 5381" d="M9.88,82.473l-8.8,8.8a.351.351,0,0,0-.091.161L.01,95.354a.346.346,0,0,0,.336.43.344.344,0,0,0,.084-.01L4.346,94.8a.346.346,0,0,0,.161-.091l8.8-8.8Zm0,0" transform="translate(0 -79.555)"/>
    <path id="Path_5382" data-name="Path 5382" d="M338.959,1.717l-.98-.98a1.775,1.775,0,0,0-2.451,0l-1.2,1.2,3.431,3.431,1.2-1.2a1.733,1.733,0,0,0,0-2.451Zm0,0" transform="translate(-323.467 0)"/>
  </g>
</svg>
