<svg id="print" xmlns="http://www.w3.org/2000/svg" width="24" height="20" viewBox="0 0 24 20">
  <path id="Path_5348" data-name="Path 5348" d="M103.281,3.517H88.469A.455.455,0,0,1,88,3.078V1.935A2,2,0,0,1,90.063,0h11.625a2,2,0,0,1,2.063,1.935V3.078A.455.455,0,0,1,103.281,3.517Z" transform="translate(-83.875)" fill="#fff"/>
  <path id="Path_5349" data-name="Path 5349" d="M21.469,112H2.531A2.459,2.459,0,0,0,0,114.374v8.266a2.459,2.459,0,0,0,2.531,2.374H4.125V121.5A3.279,3.279,0,0,1,7.5,118.331h9a3.279,3.279,0,0,1,3.375,3.166v3.517h1.594A2.459,2.459,0,0,0,24,122.64v-8.266A2.459,2.459,0,0,0,21.469,112ZM4.5,117.276a1.057,1.057,0,1,1,0-2.11h0a1.057,1.057,0,1,1,0,2.11Z" transform="translate(0 -107.476)" fill="#fff"/>
  <path id="Path_5350" data-name="Path 5350" d="M146.125,304h-9A1.092,1.092,0,0,0,136,305.055v4.924a1.092,1.092,0,0,0,1.125,1.055h9a1.092,1.092,0,0,0,1.125-1.055v-4.924A1.092,1.092,0,0,0,146.125,304Z" transform="translate(-129.625 -291.035)" fill="#fff"/>
</svg>
