<svg id="Layer_1" data-name="Layer 1" xmlns="http://www.w3.org/2000/svg" viewBox="0 0 240 360"><title>q-1</title><path d="M120.27,14.71c-20.21,0-35.26-.37-44.71-1.1-11.67-.91-13.72-2.14-13.72-4.4,0-2.55,3.07-3.62,12.64-4.39,9.19-.74,24.17-1.1,45.79-1.1,23.35,0,38.87.36,47.46,1.1,7.27.63,11,1.48,11,4.39S175.08,13,168,13.61C159.46,14.35,143.86,14.71,120.27,14.71ZM67.44,9.16c4.7.92,17.63,2.05,52.83,2.05,12,0,46.53,0,53.9-2-7.4-2-41.95-2-53.9-2C86.37,7.22,72.52,8.15,67.44,9.16Zm108,.59h0Z"/><path d="M120.27,24.49c-58.34,0-58.34-3.31-58.34-5.72a1.75,1.75,0,0,1,3.34-.72c1.31.68,9.12,2.94,55,2.94,33.85,0,52.34-.88,55-2.62a1.75,1.75,0,0,1,3.46.4c0,2.94-3.69,3.82-11,4.5C159,24.09,143.47,24.49,120.27,24.49ZM65.43,18.76h0Z"/><path d="M85.93,356.25a1.77,1.77,0,0,1-.56-.09l-20.67-7a1.77,1.77,0,0,1-1.19-1.64L60.22,50.57v-.1l1.4-29.9L61.18,8.85a1.75,1.75,0,1,1,3.5-.13l.44,11.79v.15l-1.4,29.92L67,346.21l19,6.46,22.69-6.53L109,186.27v-.13l8.13-110.38v-53a1.75,1.75,0,1,1,3.5,0V76l-8.13,110.38-.35,161.12a1.74,1.74,0,0,1-1.26,1.68l-24.49,7A1.55,1.55,0,0,1,85.93,356.25Z"/><path d="M154.7,356.25a1.84,1.84,0,0,1-.47-.06l-24.73-7.05a1.73,1.73,0,0,1-1.27-1.66l-1.42-161.12L117.15,76a.76.76,0,0,1,0-.15V22.71a1.75,1.75,0,1,1,3.5,0v53l9.66,110.37a.66.66,0,0,1,0,.14l1.41,159.88,22.94,6.53,19.18-6.46,2.31-296.08-1.27-29.79-.35-11.52a1.75,1.75,0,0,1,1.7-1.8h.05A1.75,1.75,0,0,1,178,8.71l.35,11.5,1.27,29.85-2.32,297.42a1.76,1.76,0,0,1-1.2,1.65l-20.87,7A1.77,1.77,0,0,1,154.7,356.25Zm20.88-8.78h0Z"/><path d="M86,356.28h0a1.75,1.75,0,0,1-1.74-1.77L86.68,77a1.74,1.74,0,0,1,1.75-1.73h0a1.76,1.76,0,0,1,1.74,1.77L87.72,354.55A1.75,1.75,0,0,1,86,356.28Z"/><path d="M154.74,356.28a1.75,1.75,0,0,1-1.74-1.73L149.26,77.07A1.75,1.75,0,0,1,151,75.3h0A1.75,1.75,0,0,1,152.76,77l3.74,277.48a1.75,1.75,0,0,1-1.73,1.77Z"/><path d="M62.2,57.92a1.72,1.72,0,0,1-.66-.13,1.76,1.76,0,0,1-1-2.28l14-34.62a1.75,1.75,0,1,1,3.25,1.31l-14,34.62A1.76,1.76,0,0,1,62.2,57.92Z"/><path d="M178,56.66a1.74,1.74,0,0,1-1.62-1.09L162.89,22.44a1.75,1.75,0,0,1,3.24-1.32l13.52,33.13a1.75,1.75,0,0,1-1,2.28A1.72,1.72,0,0,1,178,56.66Z"/><path d="M82.42,23.32a1.75,1.75,0,0,1-1.75-1.75v-8a1.75,1.75,0,0,1,3.5,0v8A1.75,1.75,0,0,1,82.42,23.32Z"/><path d="M87,23.32a1.75,1.75,0,0,1-1.75-1.75v-8a1.75,1.75,0,0,1,3.5,0v8A1.75,1.75,0,0,1,87,23.32Z"/><path d="M148.53,23.32a1.75,1.75,0,0,1-1.75-1.75v-8a1.75,1.75,0,0,1,3.5,0v8A1.75,1.75,0,0,1,148.53,23.32Z"/><path d="M153.09,23.32a1.75,1.75,0,0,1-1.75-1.75v-8a1.75,1.75,0,0,1,3.5,0v8A1.75,1.75,0,0,1,153.09,23.32Z"/><path d="M110.91,23.32a1.75,1.75,0,0,1-1.75-1.75v-8a1.75,1.75,0,0,1,3.5,0v8A1.75,1.75,0,0,1,110.91,23.32Z"/><path d="M118.21,22.05a4.22,4.22,0,1,1,4.21-4.22A4.23,4.23,0,0,1,118.21,22.05Zm0-4.93a.72.72,0,1,0,.71.71A.71.71,0,0,0,118.21,17.12Z"/><path d="M120,63l-1.87-3,4.14-2.62a5.06,5.06,0,0,0,2-2.76,31.36,31.36,0,0,0,.9-7c0-7.09,0-24.94,0-24.94h3.5s0,17.85,0,25a33.7,33.7,0,0,1-1.09,8.09,8.52,8.52,0,0,1-3.42,4.56Z"/></svg>