<svg id="qr-code" xmlns="http://www.w3.org/2000/svg" width="24" height="23.98" viewBox="0 0 24 23.98">
  <path id="Path_4749" data-name="Path 4749" d="M77.289,76.525v6.509a.471.471,0,0,0,.471.471h6.509a.471.471,0,0,0,.471-.471V81.8a.471.471,0,1,0-.941,0v.764H78.23V77H83.8v1.133a.471.471,0,1,0,.941,0v-1.6a.471.471,0,0,0-.471-.471H77.76A.471.471,0,0,0,77.289,76.525Zm0,0" transform="translate(-74.391 -73.215)"/>
  <path id="Path_4750" data-name="Path 4750" d="M138.513,136.8a.47.47,0,0,0-.471.471v1.953a.471.471,0,0,0,.471.471h1.953a.471.471,0,0,0,.471-.471v-1.953a.471.471,0,0,0-.471-.471ZM140,138.757h-1.011v-1.011H140Zm0,0" transform="translate(-132.866 -131.687)"/>
  <path id="Path_4751" data-name="Path 4751" d="M84.268,364.344H77.76a.471.471,0,0,0-.471.47v6.509a.471.471,0,0,0,.471.471h6.509a.471.471,0,0,0,.471-.471v-6.509A.471.471,0,0,0,84.268,364.344Zm-.471,6.509H78.23v-5.568H83.8Zm0,0" transform="translate(-74.391 -350.693)"/>
  <path id="Path_4752" data-name="Path 4752" d="M366.92,83.5h6.509a.471.471,0,0,0,.47-.471V76.525a.471.471,0,0,0-.47-.471H366.92a.471.471,0,0,0-.471.471v6.509A.471.471,0,0,0,366.92,83.5ZM367.39,77h5.568v5.568H367.39Zm0,0" transform="translate(-352.707 -73.215)"/>
  <path id="Path_4753" data-name="Path 4753" d="M373.9,371.323v-6.509a.471.471,0,0,0-.47-.47H366.92a.471.471,0,0,0-.471.47v6.509a.471.471,0,0,0,.471.471h6.509A.471.471,0,0,0,373.9,371.323Zm-.941-.471H367.39v-5.568h5.568Zm0,0" transform="translate(-352.707 -350.693)"/>
  <path id="Path_4754" data-name="Path 4754" d="M144.23,84.346a.471.471,0,0,0,0-.941h-8.251v-8.27a.471.471,0,0,0-.941,0V83.4h-6.246a.471.471,0,0,0,0,.941h6.246v8.161a.471.471,0,0,0,.941,0V84.346Zm0,0" transform="translate(-123.508 -71.877)"/>
  <path id="Path_4755" data-name="Path 4755" d="M138.513,428.921h1.953a.471.471,0,0,0,.471-.471V426.5a.47.47,0,0,0-.471-.47h-1.953a.47.47,0,0,0-.471.47v1.953A.471.471,0,0,0,138.513,428.921Zm.471-1.953H140v1.011h-1.011Zm0,0" transform="translate(-132.866 -410.064)"/>
  <path id="Path_4756" data-name="Path 4756" d="M429.619,136.8h-1.953a.471.471,0,0,0-.471.471v1.953a.471.471,0,0,0,.471.471h1.953a.471.471,0,0,0,.471-.471v-1.953A.47.47,0,0,0,429.619,136.8Zm-.471,1.953h-1.011v-1.011h1.011Zm0,0" transform="translate(-411.176 -131.687)"/>
  <path id="Path_4757" data-name="Path 4757" d="M427.666,428.921h1.953a.471.471,0,0,0,.471-.471V426.5a.47.47,0,0,0-.471-.47h-1.953a.471.471,0,0,0-.471.47v1.953A.471.471,0,0,0,427.666,428.921Zm.471-1.953h1.011v1.011h-1.011Zm0,0" transform="translate(-411.176 -410.064)"/>
  <path id="Path_4758" data-name="Path 4758" d="M77.34,307.47l-.025.006a.471.471,0,1,0,.216.916l.025-.006a.471.471,0,0,0-.216-.916Zm0,0" transform="translate(-74.066 -295.94)"/>
  <path id="Path_4759" data-name="Path 4759" d="M250.91,167.468l-.025.006a.471.471,0,1,0,.215.916l.025-.006a.471.471,0,0,0-.215-.916Zm0,0" transform="translate(-241.127 -161.188)"/>
  <path id="Path_4760" data-name="Path 4760" d="M.471,4.187a.47.47,0,0,0,.471-.471V1.273H3.3a.471.471,0,1,0,0-.941H.471A.471.471,0,0,0,0,.8V3.716A.471.471,0,0,0,.471,4.187Zm0,0" transform="translate(0 -0.332)"/>
  <path id="Path_4761" data-name="Path 4761" d="M542.866.332h-2.825a.471.471,0,1,0,0,.941H542.4V3.716a.471.471,0,0,0,.941,0V.8A.471.471,0,0,0,542.866.332Zm0,0" transform="translate(-519.336 -0.332)"/>
  <path id="Path_4762" data-name="Path 4762" d="M3.3,539.917H.941v-2.443a.471.471,0,0,0-.941,0v2.914a.471.471,0,0,0,.471.471H3.3a.471.471,0,1,0,0-.941Zm0,0" transform="translate(0 -516.879)"/>
  <path id="Path_4763" data-name="Path 4763" d="M542.866,537a.47.47,0,0,0-.471.47v2.443h-2.354a.471.471,0,1,0,0,.941h2.825a.471.471,0,0,0,.471-.471v-2.914A.471.471,0,0,0,542.866,537Zm0,0" transform="translate(-519.336 -516.879)"/>
</svg>
