<svg xmlns="http://www.w3.org/2000/svg" width="22" height="20" viewBox="0 0 22 20">
  <g id="round-arrow" transform="translate(-1.615 -0.721)">
    <path id="Path_4687" data-name="Path 4687" d="M19.645,41.992a9.972,9.972,0,0,0-5.043-8.14,9.631,9.631,0,0,0-8.58-.449A9.681,9.681,0,0,0,.774,38.71a10.158,10.158,0,0,0,0,7.779,10.083,10.083,0,0,0,2.1,3.184,9.938,9.938,0,0,0,3.151,2.134,9.47,9.47,0,0,0,3.828.8A9.793,9.793,0,0,0,14.2,51.577L13.7,50.461a8.467,8.467,0,0,1-8.193-.241,8.866,8.866,0,0,1,0-15.23,8.47,8.47,0,0,1,7.559-.536,8.559,8.559,0,0,1,2.688,1.729,8.863,8.863,0,0,1,1.86,2.615,8.667,8.667,0,0,1,.839,3.195H16.1l2.914,2.954L22,41.992Z" transform="translate(1.615 -31.884)" fill="#fff"/>
  </g>
</svg>
