<svg id="Layer_1" data-name="Layer 1" xmlns="http://www.w3.org/2000/svg" viewBox="0 0 240 360"><title>s-51</title><path d="M110.93,71.05c-1.55.44-2.36.43-2.78.83-8,7.56-8.32,7.67-16.32-.12-4-3.89-7.38-8.4-11.41-12.24-1.4-1.33-4.32-2.58-5.84-2C59.39,63.22,44.36,69.32,28.49,75.62c2.07,4.23,3.25,7.87,5.38,10.84,15.28,21.3,18,45.69,18.6,70.92,1.16,52.49,2.83,105,4.23,157.46a153.61,153.61,0,0,1-.29,17.44c-.18,2-2.25,3.78-3.46,5.66-1-1.92-2.72-3.82-2.75-5.76-.53-32-.66-64-1.27-96-.35-18.54-1.38-37.07-2.15-55.6a5.88,5.88,0,0,0-1.93-4.15,42.29,42.29,0,0,0-.65,4.86q-1.34,64.37-2.57,128.74c-.12,6,.27,12.09,0,18.12-.09,1.91-1.41,5.14-2.65,5.39-8.18,1.66-16.48,3.51-24.75,3.55-4.87,0-8.87-3.76-8.82-10,0-4-1-8-1-12,.08-38.26-.11-76.53.6-114.79.41-21.86,1.86-43.74,3.72-65.53,1.41-16.41,4-32.73,6.49-49,1.21-8,5.51-13.58,13.74-16.49C43.81,64,58.48,58.06,73.12,52.06c2-.84,3.82-3.31,4.81-5.44,1.69-3.62,1.87-8.15,4.14-11.23,2.87-3.87,6.68-8.35,11-9.63,18.88-5.67,38-4.63,56.77,1.12,7.62,2.35,9.3,9.92,10.39,16.74.81,5,2.63,7.64,7.66,9.4,14.07,4.94,27.7,11.16,41.83,15.9,12.72,4.27,15.93,14.8,17.12,25.56,3.33,30.16,6.72,60.4,7.86,90.7,1.46,39.1.78,78.29,1,117.45,0,7.16-.17,14.32-.22,21.48-.06,7.94-3.76,13.28-11.5,13.45-7.2.16-14.5-1.55-21.64-3-4.47-.9-4.43-4.83-4.38-8.6.39-32.44.81-64.88,1-97.32,0-10.05-.68-20.1-1.16-30.15-.07-1.34-.84-2.64-1.28-4h-1.89c-.61,7-1.69,14.08-1.74,21.13-.25,38.27-.24,76.54-.32,114.81a21.52,21.52,0,0,1-.22,5.34,3.65,3.65,0,0,1-2.57,2.17c-1,.07-2.71-.87-2.93-1.69a28.56,28.56,0,0,1-.9-7.27c-.06-18.13-.21-36.26,0-54.39q.62-52.65,1.65-105.29c.34-16.3,1.1-32.6,2.14-48.87.19-3,2.6-5.85,4.06-8.73,5.27-10.34,10.39-20.77,16-30.94,2-3.6,1.22-5.3-2.21-6.6-14.36-5.46-28.66-11.11-43.16-16.17-1.91-.66-5.39,1.07-7.22,2.73-4.93,4.47-9.21,9.66-14,14.27-3.89,3.71-7.78,4-11.19-1-.84-1.25-2.61-1.86-4-2.76a28,28,0,0,0-1.87,4.61,22.8,22.8,0,0,0-.09,4.68q0,121.54-.07,243.08c0,2.56-1.07,5.13-1.65,7.7l-3.38-.34V298l-2.8,0a64,64,0,0,0-.76,6.72c-.09,7.17.09,14.33-.15,21.49,0,1.28-1.61,2.52-2.47,3.78-1-1.3-2.36-2.47-3-3.94-.48-1.13-.09-2.64-.09-4q0-120.85,0-241.73C111.57,77.31,111.17,74.32,110.93,71.05ZM25,83.71,22.58,84c-.8,2.7-2.06,5.36-2.32,8.12-2.93,31.07-7.16,62.11-8.19,93.25-1.5,45.69-.7,91.46-.86,137.2,0,8.48,2.94,11,11.5,9.77,2.2-.32,4.3-1.36,6.49-1.57,4.87-.48,6.24-3.09,6-7.7-.48-8.47-.8-17-.68-25.44.47-32.83.67-65.67,1.88-98.47.77-20.71,1.26-41.74,5.33-61.93C46.17,115,32.34,100.88,25,83.71Zm192.43.51-2.74-.43c-5.21,10.47-10.69,20.81-15.48,31.47a24.16,24.16,0,0,0-1.74,11.53c1.63,19.57,4.43,39.07,5.41,58.67,1.45,29,1.94,58.06,2.39,87.11.25,16.53-.55,33.07-.45,49.61,0,2.54,1.66,6.06,3.69,7.36,2.83,1.82,6.7,2.14,10.18,2.82,6.59,1.27,9.86-1.31,9.8-7.92-.46-52.56-.53-105.12-1.71-157.66-.5-21.84-3.25-43.63-5.37-65.4C220.84,95.58,218.79,89.93,217.43,84.22ZM146.75,34c-7.44-9.57-42.08-9.63-56.11.34,4.71,4.1,9.4,7.2,15.7,7.19,7.15,0,14.36-.62,21.45,0C135.4,42.2,141.21,39.57,146.75,34Zm4.37,6.79-25.2,11.47,5,7.35c8.94,13.13,9.58,13.14,19.77.5C156.2,53.23,156.37,47.87,151.12,40.74Zm-64.32.38a11,11,0,0,0-1.47,2.48c-2.33,9,4.57,22,13.46,25.29a3.86,3.86,0,0,0,3.47-.77c3.67-4.87,7.08-9.94,11.06-15.63Zm31.38,111.34,1.71.06V117.6h-1.71Zm1.7,55h-1.71v35.29h1.71ZM118,197.58l1.72,0V163.4l-1.72,0Zm1.84,55.83-1.58,0V287.6h1.58ZM118,107.35l1.72,0V88.62l-1.72,0Z"/></svg>