<svg xmlns="http://www.w3.org/2000/svg" width="24" height="22" viewBox="0 0 24 22"><defs><style>.a{fill:#fff;}</style></defs><g transform="translate(0 -21.333)"><g transform="translate(0 21.333)"><path class="a" d="M23.5,28.333h-1a.5.5,0,0,0-.5.5v1.5a1,1,0,0,1-1,1v-2.5a1.5,1.5,0,0,0-3,0v2.5H16.993A4.069,4.069,0,0,0,13,27.34v-.007a1,1,0,0,0,1-1v-3a1,1,0,0,0-1-1v-.5a.5.5,0,1,0-1,0v.5a1,1,0,0,0-1,1v3a1,1,0,0,0,1,1H4.5a1.5,1.5,0,0,1-1.5-1.5.5.5,0,0,0-.5-.5H.5a.5.5,0,0,0-.5.5v9a.5.5,0,0,0,.5.5.5.5,0,0,0,.5.5v3a.5.5,0,1,0,1,0v-3a.5.5,0,0,0,.5-.5v-.282a1.48,1.48,0,0,0,.633-.971l.221-1.328a.5.5,0,0,1,.493-.418H8.794A1.207,1.207,0,0,1,10,33.539a3.128,3.128,0,0,1-.044.514l-.89,6.28H.5a.5.5,0,0,0-.5.5v2a.5.5,0,0,0,.5.5h21a.5.5,0,0,0,.5-.5v-2a.5.5,0,0,0-.5-.5H16V35.642a2.945,2.945,0,0,1,.309-1.309,6.573,6.573,0,0,0,.617-2H18v2.5a1.5,1.5,0,1,0,3,0v-2.5a2,2,0,0,0,2-2v-1h.5a.5.5,0,1,0,0-1Zm-10,3.846v5.654a.5.5,0,1,1-1,0V32.179a.987.987,0,0,1-.5-.846,1,1,0,0,1,2,0A.987.987,0,0,1,13.5,32.179Z" transform="translate(0 -21.333)"/></g></g></svg>