<svg xmlns="http://www.w3.org/2000/svg" width="20" height="22" viewBox="0 0 20 22">
  <g id="suit" transform="translate(-16.214 -2)">
    <g id="Group_5092" data-name="Group 5092" transform="translate(16.214 2)">
      <path id="Path_5351" data-name="Path 5351" d="M44.394,13.27l1.3-7.292-1.044-1.44.512-1.027H43.625l.513,1.027-1.045,1.44Z" transform="translate(-34.395 -2.564)" fill="#fff"/>
      <path id="Path_5352" data-name="Path 5352" d="M30.52,19.894h2.163l-.54-7.434L31.06,2.624,25.926.875,25.385,0l-.54,1.749L22.682,11.8,20.52,1.749,19.979,0l-.54.874L14.3,2.623,13.223,12.46l-.54,7.434h2.162l1.973-9.648.729,2.213-2.163,7.356L21.6,22l1.081-4.3,1.08,4.3,6.217-2.186-2.164-7.356.729-2.213ZM28.38,6.257l-2.2.246,1.453-1.449.744.465Z" transform="translate(-12.683)" fill="#fff"/>
    </g>
  </g>
</svg>
