<svg id="Layer_1" data-name="Layer 1" xmlns="http://www.w3.org/2000/svg" viewBox="0 0 240 360"><title>sw-1</title><path d="M234,287.82A1781.6,1781.6,0,0,0,223,91.88c-1.93-17.19-8.41-31.4-26.07-38-8.33-3.1-16.33-7.22-24.82-9.76-9.39-2.81-15.16-7.9-17.43-17.72C153.15,19.65,147.84,14.5,141,14a287.81,287.81,0,0,0-37.61,0c-8.31.52-14.62,5.18-17,13.89-.62,2.3-1.1,4.85-2.47,6.67-2,2.71-4.39,5.87-7.33,7.06-7.41,3-15.45,4.49-22.82,7.58C36.79,56.34,21,64.68,19.07,86.36c-2.84,31.15-7.71,62.19-9.14,93.39C7.56,231.44,7.28,283.23,6,335c-.14,5.31,2.05,8.33,7.14,9.08,6.65,1,13.32,2.07,20,2.41,10.11.52,11.33-.91,11.84-11.19,0-.2,0-.57.07-1.11,17.86,1.33,59.58,5.78,74.5,6.73.16,0,66.62-3.41,75.29-3.84.9,8.27.85,9.43,8.58,9.43s27.55.9,28.71-2.61S234,303,234,287.82Zm-95-227c-4.35-7.74-8.48-15.08-13-23.1,6.9-1.86,18.65-7.08,23.87-11,4.32,6.17,6.53,11.75,6.53,14.36C156.46,45.88,151,51.07,139,60.8Zm-8.69-6.69s-7.83-5.22-18.27,0l9.14-17ZM95.11,21.48a8.65,8.65,0,0,1,6.53-3.92c10.44-1.3,15.9-.8,24.66-1.22,3.37-.16,12.52.21,15.8,1.22,2.9.9,9.26,2.07,5.22,5.23-5.27,4.12-10.74,5.86-15.66,7.83a34,34,0,0,1-17,2.61c-4.93-.41-13.46-4.12-17-6.53C96.63,26,93.81,24.09,95.11,21.48ZM92.5,26.7c7.83,9.14,14.36,9.14,22.75,11.36L102.94,61.94C81.05,45.63,85.87,39.62,92.5,26.7ZM200.84,341.26c-.44-14.33,1.63-33.54.86-47.85-3.14-58.36-6.58-109.17-10-167.51-.13-2.27-1.46-12-2.27-14.22-2.07,1.4-7.76,15.17-8.17,16.83-8.63,34.86-9.66,62.16-3.3,97.54,5.85,32.54,15.34,99.2,16.65,108.82-10.09.5-74.83,3.83-75,3.81l-.46,0h.43V62.26l-1.28-.09V338.59c-15.86-1.14-56.74-6.44-74.06-7.77.14-2.75,0-6,0-11.75,0-27.09,11.43-52.38,16.3-78.92,3.84-20.91,7.19-42.46,5.89-64.65-1.15-19.51-3.33-27.71-6.53-47-.41-2.5-4.72-14.14-6.71-16.37-1.25,2.45-3.44,4.84-3.6,7.37q-2.66,40.35-4.72,80.74-3.2,65.14-6,130.32c-.57,13.6-.24,13.62-14.05,12.27-11.57-1.13-14.74-2.76-14.56-14.63.35-22.18,0-44.39,0-66.57,0-57.71,3.79-113.57,13.06-172.29,1.08-6.86,2.06-15,9.13-19.58,5.3,12.75,11.38,26,16.49,38.28l1.67-.73C45.64,94.1,40,79,35.07,65.86c6.18-8,30.28-17.42,46.14-20.26,5.31,6.43,10,13,15.57,18.64,5.17,5.26,8,4.6,11.24-1.93,2.2-4.49,5.3-5.16,10-6.08,9.56-1.85,14.56,1.56,17.52,10,.24.69,1.24,1.11,3.1,2.66l23.46-25.62c11,5.23,34.78,10.82,43.92,20-5.13,12.4-16.52,45.16-15.63,45.52C195,97,203.82,78.33,208.67,65.86c11.74,9.13,11.66,51.43,13.05,65.26,1.29,12.75,11.75,138.35,6.53,210.14C217.8,343.87,200.88,342.63,200.84,341.26Zm-2.61-14.36c-.68,0-6.6-50.58-7.28-50.55-8.39-48.64-21.44-94.33-6.5-148.07.57,0,2.77-7.63,3.33-7.6C190.06,170,196,277.6,198.23,326.9Zm-154-30c2.3-48.32,3.91-125.3,9.14-174.9C72.92,179.41,56.39,234.65,44.21,296.88Z"/></svg>