<svg xmlns="http://www.w3.org/2000/svg" width="24" height="24" viewBox="0 0 24 24">
  <g id="refresh" transform="translate(0.001 0)">
    <path id="Path_5373" data-name="Path 5373" d="M2.882,13.107A9.5,9.5,0,0,1,2.812,12,9.149,9.149,0,0,1,18.164,5.236l-.811.825a.719.719,0,0,0-.183.7.736.736,0,0,0,.534.478c.142.028,4.791,1.527,4.5,1.467a.711.711,0,0,0,.83-.83c-.029-.142-1.058-5.307-1-5.011a.7.7,0,0,0-1.181-.352l-.689.675A12.008,12.008,0,0,0,0,12v.028c0,.4.018.7.039.937a.7.7,0,0,0,.563.626l1.445.289a.7.7,0,0,0,.836-.773Zm0,0" fill="#fff"/>
    <path id="Path_5374" data-name="Path 5374" d="M42.889,215.731l-1.449-.3a.7.7,0,0,0-.839.774,9.571,9.571,0,0,1,.073,1.113,9.138,9.138,0,0,1-15.352,6.75l.811-.811a.719.719,0,0,0,.183-.7.735.735,0,0,0-.534-.478c-.142-.029-4.791-1.527-4.5-1.467a.689.689,0,0,0-.633.2.7.7,0,0,0-.2.633l1,4.964a.7.7,0,0,0,.492.534.675.675,0,0,0,.689-.183l.675-.675a11.982,11.982,0,0,0,20.175-8.761v-.042c0-.312-.011-.618-.037-.922a.7.7,0,0,0-.56-.628Zm0,0" transform="translate(-19.487 -205.323)" fill="#fff"/>
  </g>
</svg>
