<svg id="sale" xmlns="http://www.w3.org/2000/svg" width="24" height="24" viewBox="0 0 24 24">
  <g id="Group_5198" data-name="Group 5198" transform="translate(0)">
    <path id="Path_5406" data-name="Path 5406" d="M13.942,1.26C13.751.8,13.166.016,11.385,0h-.057A9.994,9.994,0,0,0,7.654.817c-.236.1-.463.2-.683.309l-.012-.012a1.887,1.887,0,0,0-2.63,0L.744,4.6A2.441,2.441,0,0,0,0,6.353v11.8a1.724,1.724,0,0,0,1.723,1.723H9.568a1.724,1.724,0,0,0,1.723-1.723V6.353a2.392,2.392,0,0,0-.2-.971,8.817,8.817,0,0,0,1.931-1.427C14.263,2.691,14.133,1.723,13.942,1.26Zm-4.7,3.4A9.75,9.75,0,0,1,7.024,5.3c0,.033,0,.061,0,.093a1.427,1.427,0,1,1-.28-.85,10.049,10.049,0,0,0,2.081-.61c.248-.1.48-.207.7-.317l-1.439-1.4c.041-.016.081-.033.122-.053a8.658,8.658,0,0,1,3.122-.707h.041c.858.008,1.179.24,1.228.362C12.751,2.187,11.8,3.61,9.239,4.662Z" transform="translate(0 9.945) rotate(-45)" fill="#3e5369"/>
  </g>
</svg>
