<svg id="coins-of-dollars-stack" xmlns="http://www.w3.org/2000/svg" width="20" height="20" viewBox="0 0 20 20">
  <path id="Path_5347" data-name="Path 5347" d="M7.5,7.5c4.141,0,7.5-1.68,7.5-3.75S11.641,0,7.5,0,0,1.68,0,3.75,3.357,7.5,7.5,7.5ZM8.535,4.29a10.869,10.869,0,0,0-1.4-.254Q6.156,3.9,5.608,3.767a2.655,2.655,0,0,1-.894-.37.682.682,0,0,1-.342-.555c0-.277.205-.527.613-.748a4.819,4.819,0,0,1,1.926-.406V1.25H8.1v.437a3.3,3.3,0,0,1,2.568.9l-1.631.269A1.845,1.845,0,0,0,7.559,2.3a2.191,2.191,0,0,0-.806.123c-.2.082-.3.182-.3.3s.1.21.293.273A9.532,9.532,0,0,0,8,3.235q1.055.154,1.653.291a2.889,2.889,0,0,1,.959.378.686.686,0,0,1,.356.564c0,.332-.247.607-.737.828A6.052,6.052,0,0,1,8.1,5.685V6.25H6.912V5.687c-1.55-.063-2.507-.424-2.878-1.08l1.831-.19q.256.619,1.685.619A2.7,2.7,0,0,0,8.535,4.9c.21-.088.315-.2.315-.32S8.745,4.355,8.535,4.29ZM0,6.25A1.916,1.916,0,0,1,.12,5.6C1.392,7.1,4.18,8.125,7.5,8.125a14.87,14.87,0,0,0,2.7-.248A6.922,6.922,0,0,0,8,9.988c-.168,0-.334.012-.5.012C3.357,10,0,8.32,0,6.25Zm15,0a1.955,1.955,0,0,1-.144.723,6.874,6.874,0,0,0-1.106-.1c-.205,0-.405.013-.605.031A5.759,5.759,0,0,0,14.88,5.6,1.978,1.978,0,0,1,15,6.25ZM10.349,19.718A14.216,14.216,0,0,1,7.5,20C3.357,20,0,18.32,0,16.25A1.916,1.916,0,0,1,.12,15.6c1.272,1.5,4.06,2.524,7.38,2.524.315,0,.62-.017.923-.035A6.945,6.945,0,0,0,10.349,19.718ZM0,13.75A1.916,1.916,0,0,1,.12,13.1c1.226,1.445,3.862,2.438,7.019,2.511a6.763,6.763,0,0,0,.85,1.876c-.164,0-.325.012-.488.012C3.357,17.5,0,15.82,0,13.75Zm0-2.5A1.916,1.916,0,0,1,.12,10.6c1.2,1.41,3.735,2.386,6.787,2.5-.02.214-.032.43-.032.648a6.907,6.907,0,0,0,.117,1.238C3.088,14.856,0,13.235,0,11.25Zm0-2.5A1.916,1.916,0,0,1,.12,8.1c1.272,1.5,4.06,2.524,7.38,2.524.046,0,.09,0,.137,0A6.774,6.774,0,0,0,7,12.488C3.091,12.357,0,10.735,0,8.75ZM13.75,7.5A6.25,6.25,0,1,0,20,13.75,6.25,6.25,0,0,0,13.75,7.5Zm2.183,9.34a2.544,2.544,0,0,1-1.707.779v1.13h-.947V17.625a2.481,2.481,0,0,1-2.3-2.162l1.462-.381a1.276,1.276,0,0,0,1.35,1.238,1.042,1.042,0,0,0,.786-.265.894.894,0,0,0,.254-.64.7.7,0,0,0-.254-.587,4.533,4.533,0,0,0-1.121-.509,6.5,6.5,0,0,1-1.221-.536,2.041,2.041,0,0,1-.715-.74,2.216,2.216,0,0,1-.273-1.111,2.458,2.458,0,0,1,.491-1.5,2.191,2.191,0,0,1,1.541-.812V8.75h.947v.874a2.288,2.288,0,0,1,2.056,1.8l-1.3.537q-.381-1.1-1.182-1.1a.858.858,0,0,0-.642.247.813.813,0,0,0-.244.6.668.668,0,0,0,.234.549,4.045,4.045,0,0,0,1,.472,8.686,8.686,0,0,1,1.323.582,2.1,2.1,0,0,1,.769.757,2.2,2.2,0,0,1,.286,1.128A2.4,2.4,0,0,1,15.933,16.84Z" fill="#fff"/>
</svg>
