<svg xmlns="http://www.w3.org/2000/svg" width="18" height="24" viewBox="0 0 18 24">
  <g id="delete_1_" data-name="delete (1)" transform="translate(0 0)">
    <path id="Path_5362" data-name="Path 5362" d="M16.482,2.713H13.708V2.578A2.689,2.689,0,0,0,10.926,0H7.074A2.689,2.689,0,0,0,4.292,2.578v.135H1.518A1.465,1.465,0,0,0,0,4.119V5.191a.488.488,0,0,0,.506.469H17.494A.488.488,0,0,0,18,5.191V4.119a1.465,1.465,0,0,0-1.518-1.406ZM5.809,2.578A1.222,1.222,0,0,1,7.074,1.406h3.851A1.222,1.222,0,0,1,12.19,2.578v.135H5.809Zm0,0" transform="translate(0)" fill="#fff"/>
    <path id="Path_5363" data-name="Path 5363" d="M12.949,150.738l1.233,16.28a.741.741,0,0,0,.761.654h12.8a.74.74,0,0,0,.761-.654l1.233-16.28Zm5.372,14.543h-.033a.738.738,0,0,1-.762-.673l-.509-11.016a.729.729,0,0,1,.73-.732.742.742,0,0,1,.8.673l.509,11.016a.729.729,0,0,1-.73.732Zm3.784-.7a.766.766,0,0,1-1.527,0V153.563a.766.766,0,0,1,1.527,0Zm3.052.03a.738.738,0,0,1-.762.673h-.033a.729.729,0,0,1-.73-.732l.509-11.016a.742.742,0,0,1,.8-.673.729.729,0,0,1,.73.732Zm0,0" transform="translate(-12.342 -143.672)" fill="#fff"/>
  </g>
</svg>
