<svg xmlns="http://www.w3.org/2000/svg" width="29.851" height="20" viewBox="0 0 29.851 20"><defs><style>.a{fill:#fff;}</style></defs><g transform="translate(0 -74.592)"><circle class="a" cx="1.86" cy="1.86" r="1.86" transform="translate(11.855 90.872)"/><circle class="a" cx="1.86" cy="1.86" r="1.86" transform="translate(3.095 90.872)"/><g transform="translate(20.72 74.592)"><path class="a" d="M348.4,92.858h-7.51a.8.8,0,0,1-.81-.778V75.37a.811.811,0,0,1,1.621,0V91.3h6.7a.779.779,0,1,1,0,1.556Z" transform="translate(-340.081 -74.592)"/></g><path class="a" d="M18.467,105.886c-1.676-2.624-6.085-9.654-6.129-9.725a1.269,1.269,0,0,0-1.073-.583H4.124a1.226,1.226,0,0,0-1.25,1.2v6.589H.864a.847.847,0,0,0-.864.827v7.634a.847.847,0,0,0,.864.827h.9a.208.208,0,0,0,.212-.2A2.916,2.916,0,0,1,4.955,109.6a2.916,2.916,0,0,1,2.974,2.848.2.2,0,0,0,.062.144.217.217,0,0,0,.15.059h2.385a.208.208,0,0,0,.212-.2,2.977,2.977,0,0,1,5.948,0,.208.208,0,0,0,.212.2h.647a1.1,1.1,0,0,0,1.122-1.074v-5.152A1.015,1.015,0,0,0,18.467,105.886Zm-7.095-.013V104.76a.354.354,0,0,0-.362-.346H8.961v-3.277a.354.354,0,0,0-.362-.346H7.454a.354.354,0,0,0-.362.346v4.736H5.374v-7.9h5.181l4.93,7.9H11.372Z" transform="translate(0 -19.708)"/><g transform="translate(23.554 75.549)"><path class="a" d="M392.908,241.958a.386.386,0,0,1-.386.386H387a.386.386,0,0,1-.386-.386v-5.525a.386.386,0,0,1,.386-.386h5.525a.386.386,0,0,1,.386.386Z" transform="translate(-386.611 -228.171)"/><path class="a" d="M392.908,112.635a.386.386,0,0,1-.386.386H387a.386.386,0,0,1-.386-.386V107.11a.386.386,0,0,1,.386-.386h5.525a.386.386,0,0,1,.386.386Z" transform="translate(-386.611 -106.724)"/></g></g></svg>