<svg xmlns="http://www.w3.org/2000/svg" width="152" height="104" viewBox="0 0 152 104">
  <g id="Group_5182" data-name="Group 5182" transform="translate(-320 -264)">
    <g id="Rectangle_3880" data-name="Rectangle 3880" transform="translate(320 264)" fill="#fff" stroke="#000" stroke-width="1" stroke-dasharray="10">
      <rect width="152" height="104" rx="10" stroke="none"/>
      <rect x="0.5" y="0.5" width="151" height="103" rx="9.5" fill="none"/>
    </g>
    <path id="Path_4681" data-name="Path 4681" d="M35.378,67.019H4.632A4.627,4.627,0,0,1,.01,62.4L0,43.253A4.627,4.627,0,0,1,4.622,38.63H10.9l.549-1.853a2.279,2.279,0,0,1,2.241-1.758H26.3a2.324,2.324,0,0,1,2.245,1.767l.015.063.5,1.78h6.3a4.627,4.627,0,0,1,4.622,4.623L40,62.4A4.628,4.628,0,0,1,35.378,67.019ZM4.622,40.171a3.084,3.084,0,0,0-3.081,3.082L1.551,62.4a3.084,3.084,0,0,0,3.081,3.082H35.378A3.084,3.084,0,0,0,38.459,62.4l-.01-19.143a3.084,3.084,0,0,0-3.081-3.082H27.9l-.843-3.009a.774.774,0,0,0-.75-.6H13.684a.765.765,0,0,0-.75.6l-.89,3.008ZM20,61.965a9.778,9.778,0,1,1,9.775-9.778A9.788,9.788,0,0,1,20,61.965Zm0-18.016a8.237,8.237,0,1,0,8.234,8.238A8.246,8.246,0,0,0,20,43.949Zm14.377-.918a1.421,1.421,0,1,0,1.42,1.422A1.421,1.421,0,0,0,34.373,43.031Z" transform="translate(376 264.981)"/>
  </g>
</svg>
