<svg id="user_5_" data-name="user (5)" xmlns="http://www.w3.org/2000/svg" width="20.023" height="24" viewBox="0 0 20.023 24">
  <path id="Path_5407" data-name="Path 5407" d="M92.812,11.561A5.593,5.593,0,0,0,96.9,9.867,5.593,5.593,0,0,0,98.593,5.78,5.594,5.594,0,0,0,96.9,1.693a5.779,5.779,0,0,0-8.174,0A5.593,5.593,0,0,0,87.032,5.78a5.593,5.593,0,0,0,1.694,4.087A5.594,5.594,0,0,0,92.812,11.561Zm0,0" transform="translate(-82.952 0)" fill="#3e5369"/>
  <path id="Path_5408" data-name="Path 5408" d="M19.974,254.178a14.278,14.278,0,0,0-.194-1.516,11.949,11.949,0,0,0-.373-1.525,7.53,7.53,0,0,0-.627-1.422,5.365,5.365,0,0,0-.945-1.232,4.167,4.167,0,0,0-1.358-.853,4.693,4.693,0,0,0-1.733-.314,1.759,1.759,0,0,0-.94.4c-.282.184-.611.4-.979.631a5.608,5.608,0,0,1-1.266.558,4.918,4.918,0,0,1-3.1,0,5.6,5.6,0,0,1-1.265-.558c-.364-.233-.694-.445-.98-.631a1.757,1.757,0,0,0-.939-.4,4.687,4.687,0,0,0-1.733.314,4.164,4.164,0,0,0-1.358.853,5.367,5.367,0,0,0-.945,1.232,7.546,7.546,0,0,0-.627,1.422,11.977,11.977,0,0,0-.373,1.525,14.228,14.228,0,0,0-.194,1.517c-.032.459-.048.936-.048,1.417a3.985,3.985,0,0,0,1.184,3.015,4.261,4.261,0,0,0,3.05,1.113H15.789a4.26,4.26,0,0,0,3.05-1.113,3.983,3.983,0,0,0,1.184-3.015c0-.484-.016-.961-.049-1.418Zm0,0" transform="translate(0 -235.723)" fill="#3e5369"/>
</svg>
