<svg xmlns="http://www.w3.org/2000/svg" width="15.999" height="20" viewBox="0 0 15.999 20">
  <g id="user_5_" data-name="user (5)" transform="translate(0 0)">
    <path id="Path_4874" data-name="Path 4874" d="M91.651,9.238a4.469,4.469,0,0,0,3.266-1.353,4.469,4.469,0,0,0,1.353-3.266,4.47,4.47,0,0,0-1.353-3.266,4.618,4.618,0,0,0-6.531,0,4.469,4.469,0,0,0-1.353,3.266,4.469,4.469,0,0,0,1.353,3.266,4.47,4.47,0,0,0,3.266,1.353Zm0,0" transform="translate(-83.772 0)" fill="#fff"/>
    <path id="Path_4875" data-name="Path 4875" d="M15.96,252.8a11.408,11.408,0,0,0-.155-1.212,9.547,9.547,0,0,0-.3-1.218,6.018,6.018,0,0,0-.5-1.136,4.288,4.288,0,0,0-.755-.984,3.33,3.33,0,0,0-1.085-.682,3.749,3.749,0,0,0-1.385-.251,1.406,1.406,0,0,0-.751.318c-.225.147-.488.316-.782.5a4.481,4.481,0,0,1-1.012.446,3.929,3.929,0,0,1-2.475,0,4.47,4.47,0,0,1-1.011-.446c-.291-.186-.554-.356-.783-.5a1.4,1.4,0,0,0-.75-.318,3.744,3.744,0,0,0-1.385.251,3.327,3.327,0,0,0-1.085.682,4.288,4.288,0,0,0-.755.984,6.03,6.03,0,0,0-.5,1.136,9.568,9.568,0,0,0-.3,1.218A11.367,11.367,0,0,0,.038,252.8c-.025.367-.038.748-.038,1.132a3.184,3.184,0,0,0,.946,2.409,3.4,3.4,0,0,0,2.437.889h9.234a3.4,3.4,0,0,0,2.437-.889A3.183,3.183,0,0,0,16,253.932c0-.386-.013-.768-.039-1.133Zm0,0" transform="translate(0 -237.23)" fill="#fff"/>
  </g>
</svg>
