<svg id="Layer_1" data-name="Layer 1" xmlns="http://www.w3.org/2000/svg" viewBox="0 0 240 360"><title>v-2</title><path d="M89.11,352.06c-11.55,0-26.35-2.67-44.64-10.81a2,2,0,0,1-1.18-2c0-.43,3.21-43.68,6.35-98.1,2-34.21-2.28-67.89-5.72-88.17L42.34,322.85a2,2,0,0,1-1,1.7c-.22.13-21.69,12.63-37.79-4.59a2,2,0,0,1-.53-1.36c0-9.12.16-223.9,14.49-265.09a2,2,0,0,1,1-1.13C33,45.06,49,39.49,65.91,33.59q6.24-2.18,12.58-4.42l2.1-1.85C97.25,12.58,120-7.6,158.09,27.27a466.37,466.37,0,0,1,49.28,18.56c3.37,1.46,6.87,3,10.77,4.6a2,2,0,0,1,1,1c17.75,37.31,18.24,243.44,17.66,269.87a2,2,0,0,1-.71,1.49c-.2.17-20.29,16.67-37.62-.1a2,2,0,0,1-.61-1.35c-.23-5.19-4.75-108.58-3.06-164.43-3.74,19.4-7.73,46.92-6.36,71.22,1.5,26.44,4.28,54.47,6.51,77,1.48,14.9,2.65,26.67,3.07,34.1a2,2,0,0,1-1.41,2c-2.46.76-59.07,17.94-76.72,2.27C116.31,346.15,106.3,352.06,89.11,352.06Zm-41.73-13.9c14.29,6.2,34.83,12.48,53.91,8.68,11.68-2.33,17.36-7.43,17.42-7.48a2,2,0,0,1,1.46-.52,2,2,0,0,1,1.39.67c11.44,12.94,54.74,3.58,72.4-1.64-.49-7.47-1.64-19.07-3-32.37-2.24-22.55-5-50.63-6.52-77.15-2.46-43.59,12-97.17,12.15-97.71a2,2,0,0,1,3.92.8c-5.1,36.41.79,176.88,1.3,188.91,13.13,12,27.65,2.43,31-.09.46-26.71-.22-228.72-17-266.44-3.62-1.53-6.91-3-10.09-4.32a466.71,466.71,0,0,0-49.33-18.56,2,2,0,0,1-.74-.43c-35.59-32.83-56-14.74-72.47-.2l-2.4,2.12a2.06,2.06,0,0,1-.64.37c-4.35,1.56-8.68,3.07-13,4.57C50.74,43.12,35.14,48.56,21.06,55.59c-13.43,41.18-14,247.55-14,262.2,12.14,12.33,27.32,5.88,31.3,3.85l1.76-188.37a2,2,0,0,1,3.94-.45c.13.53,12.74,53.87,9.58,108.59C50.81,290.36,48,330.28,47.38,338.16Z"/><path d="M74.69,55.94a2,2,0,0,1-1.16-.37l-10-7.1a2,2,0,0,1-.36-2.93c5.06-5.93,13.34-15.69,14-16.6a2,2,0,0,1,2.73-.66,2,2,0,0,1,.67,2.77c-.49.82-7.75,9.38-12.91,15.43l6.91,4.91,11.83-10.6V22.42a2,2,0,0,1,4,0V41.69a2,2,0,0,1-.67,1.49L76,55.43A2,2,0,0,1,74.69,55.94Z"/><path d="M117.28,200a2,2,0,0,1-1.86-1.26L62,65.2A2,2,0,0,1,62.52,63L88.44,40.19a2,2,0,0,1,3.27,1.06l30.94,137.39a2,2,0,0,1,0,.8l-3.42,18.87a2,2,0,0,1-1.76,1.63ZM66.23,65l50.32,125.73,2.11-11.62L88.55,45.41Z"/><path d="M120.06,342.84a2,2,0,0,1-2-1.93c-.19-5.25-4.82-128.55-4.82-131.21,0-.67.64-4.17,3.64-20.16,8.35-44.66,27.92-149.25,26.27-169.92a2,2,0,1,1,4-.31c1.69,21.19-17.95,126.15-26.33,171-1.93,10.28-3.45,18.43-3.57,19.5.05,3.3,3.17,86.91,4.82,131a2,2,0,0,1-1.92,2.07Z"/><path d="M158.7,50.26a2.07,2.07,0,0,1-1.29-.47L143.54,38.1a2,2,0,0,1-.72-1.57l.32-17.1a2,2,0,0,1,4,.07l-.3,16.15L159.25,46.1l8.88-1.83L155.58,30.38a2,2,0,1,1,3-2.69l14.89,16.5a2,2,0,0,1,.42,2,2,2,0,0,1-1.5,1.33l-13.25,2.74A2.85,2.85,0,0,1,158.7,50.26Z"/><path d="M115.24,211.7a2,2,0,0,1-1.19-.39,2,2,0,0,1-.42-2.79h0c.25-.34,25.37-35.35,54.44-147.48a148,148,0,0,0-24.45-22.87A2,2,0,0,1,146,35c16.42,12.31,25.45,23.89,25.82,24.38a2,2,0,0,1,.36,1.72c-29.43,113.87-54.31,148.41-55.35,149.82A2,2,0,0,1,115.24,211.7Z"/><path d="M126.56,223.22c-4.86,0-8.81-3.21-8.81-7.16s4-7.16,8.81-7.16,8.81,3.21,8.81,7.16S131.42,223.22,126.56,223.22Zm0-10.32c-2.61,0-4.81,1.44-4.81,3.16s2.2,3.16,4.81,3.16,4.81-1.45,4.81-3.16S129.17,212.9,126.56,212.9Z"/><path d="M201,120.49a1.83,1.83,0,0,1-.33,0,2,2,0,0,1-1.65-2.3c3.86-23.53,16.35-66,16.47-66.46a2,2,0,0,1,3.84,1.13c-.12.43-12.54,42.69-16.36,66A2,2,0,0,1,201,120.49Z"/><path d="M38.77,120.49a2,2,0,0,1-2-1.75c-3.21-26.19-19-63.41-19.2-63.79a2,2,0,0,1,3.68-1.57c.66,1.54,16.21,38.12,19.49,64.87A2,2,0,0,1,39,120.48Z"/><path d="M129.59,264.43H121.1a2,2,0,1,1,0-4h8.49a2,2,0,0,1,0,4Z"/></svg>