<svg id="Layer_1" data-name="Layer 1" xmlns="http://www.w3.org/2000/svg" viewBox="0 0 240 360"><title>vw-1</title><path d="M127.18,339.28c-13.52,17.57-33.47,18.17-51.2,17.2-5.8-.31-11.5-2.18-17.26-3.26-8.89-1.67-14.16-3.47-22.3-1.14-4.82,1.38-16,2.8-21,1.16a77.09,77.09,0,0,1-8.15-3.49s-6-96.83-4-142.24c2.16-49,10-97.74,15.56-146.58C20,50.86,24.78,44.87,33.32,41.86c4.59-1.61,25.8-8.72,30.34-10.49,4.17-1.63,7.67-4,13.73-11.53C91,2.8,105.19,5,124.13,5.18c13.52.13,28.18,2.56,34.68,14.35,4.38,8,11.37,11.29,19.9,14.17,9,3,18.68,5.69,28.11,8.16,8.73,2.3,10.13,10.41,11.13,19.3,2.82,25.23,4.12,47.66,7.19,72.86,5.61,51.65,9.1,101.69,9.41,153.09-.85,18.55.94,37.12-.41,55.63-.21,2.88-3.69,7.48-6.19,7.86-7.55,1.17-15.37.73-23.08.77-6.69,0-13.43-.64-20.07-.09-9.06.73-18,2.55-27.06,3.5C144.63,356.16,135.16,352.3,127.18,339.28ZM72.25,149.39c1-.1,4.66,46.05,3.17,65.1C72,258,64.34,352.08,64.34,352.08s11.64,3.49,27.93,2.33c17.63-1.26,31.62-10.32,34.91-27.93,1.08-5.75.93-16.31,1.17-22.11,1.37-33.48,2.58-63.71,1.16-95.42-.3-6.76-2.51-14-3.36-21.33-6,3.87-12.52,3.19-14.1-3.11-1.16-4.65,2.33-7,6.25-6.57-9.39-15.86-36.83-78.51-42.36-92.77-4.67-12-12.76-27.5,1.2-38-7-3.49-20.94-10.6-20.94-10.6S38.84,43.28,30.6,46c8.27,25.81,21.91,80.2,21,80.49-7-22.72-16.31-54.75-23.3-77.47-2.79,2-5.52,8.64-6.12,14.31C16.63,115.85,9.24,159.73,7.21,208.1c-1.84,44.12,3.92,139.74,3.92,139.74s5.64,3.07,14.81,3.07c8.15,0,11.64-2.32,11.64-2.32s.05-26.4-.2-35.85c-1.52-57.85.89-100.34,10.67-157.32.54-3.16,3.49-18.62,7.88-23.7,1.49,2.93,3.76,17,3.76,20.21a525.7,525.7,0,0,1-7,87.27c-3,18.15-8.63,45.5-10.48,67.5a259.44,259.44,0,0,0,0,41.89A170.63,170.63,0,0,0,62,352.08C63.18,286.91,79.67,215.92,72.25,149.39Zm89.84-99.87c4.66,4.66,6.11,13.24,4.45,17.79-8.82,24.1-18.41,46.22-26.83,68.91-7.08,19.08-13.69,28.51-9.11,55.11,4.42,30.34,2,61.72,1.88,92.66,0,13.65-1.56,31.94-2.2,45.58-.95,20,17.85,28.33,42.28,20.18-.11-29.33-3.06-67.12-7.33-99-4.29-32.11-5.38-45.38-4.3-81.35,0-3.49,2.64-20.11,3.65-20-7.66,66.52,11.26,130.92,11.79,200.33,9-2.27,23.16-1.71,23.16-1.71s1-36.63,1.22-49.82c-2.58-61.28-8.28-54.4-14.22-81.07-6-27.1-7-68.65-2.09-85.27,1.42,1.81,5.19,14,5.58,16.62,8.15,61.67,15.06,120,12.13,182.43-.15,3.24.27,16.72.27,16.72s27.72,1.23,27.83-1.08c1.62-33.16-.18-71.09-1.49-104.18-1.82-46.15-6.67-92.2-10.68-138.25-1.33-15.25-3.84-37-6-52.23-1.07-.08-24.29,74.88-25.6,74.48,5.82-25.6,15.45-52.67,23.27-79.13-10.24-3.41-23.48-7.68-32.24-10.6C173.28,40.5,164.15,47.65,162.09,49.52ZM121.36,154.25c.74-.09,16.72-87.3,24.44-117.53,3.82-14.94-1.7-28.51-17.45-29.09-6.69-.24-18.72.26-25.5.64-9.42.53-15.23,14.49-14.07,20.31C94.84,58.86,120.45,151.33,121.36,154.25Zm27.18-110.2c-7.4,29.69-26,114.86-26,114.86s3.31,18.55,3.49,18.62c-2.33-19.78,24.51-78.94,33.24-100.3C166.21,60.2,164.79,56.67,148.54,44.05Zm-26,133.48c.68-.3-25-97.4-33.75-133.82C73.06,54.17,69.8,59.61,76,74.58c8.57,20.72,17.52,41.28,26.61,61.78C105.17,142.11,119.39,172,122.53,177.53Zm-81.46,121c3.49-44.22,19.78-126.84,14-158.26C48.05,168.22,38.74,240.37,41.07,298.55Zm144.6-156.22c-5,16.58,1.39,79,10.63,94.39C193.3,211.89,188.32,164.31,185.67,142.33ZM80.63,46a53.68,53.68,0,0,0,7-5.81s-3.48-8.59-2.33-16.3c.75-5.06,2.33-7,5.82-11.63C83,15.78,75.84,28.43,73.65,29.74a69.29,69.29,0,0,1-14,5.82S75.69,44.05,80.63,46Zm94.26-10.47c-7-3.49-9.31-4.65-14-8.15-2-1.51-5.82-10.47-14-14-.1.88,3.09,6,3.49,10.47a62.51,62.51,0,0,1-1.16,16.3l10.47,8.14S170.24,39.05,174.89,35.56Z"/></svg>