<svg id="Layer_1" data-name="Layer 1" xmlns="http://www.w3.org/2000/svg" viewBox="0 0 240 360"><title>zw-1</title><path d="M236,106.27c-1.57,60.1-9.91,110.87-20.52,161.32-3.88,18.43-8.28,36.75-12.92,55-.71,2.81-3.7,6.73-6.16,7.16-44,7.75-88.14,10.77-132.68,4C35,329.43,34.24,330.08,29.21,302,21.24,257.42,12.64,212.9,7.28,168A461.43,461.43,0,0,1,11.83,28.44c.88-4.73,2.58-6.3,7.83-5.89,27.45,2.13,54.92,4.82,82.42,5.22,36.23.52,72.5-.47,108.72-1.7,17-.57,17.32-1.55,19.11,15.43C232.48,65.83,234.51,90.22,236,106.27ZM108.12,61.47c-29.76-1.33-59-2.52-88.17-4-5.77-.3-6.24,2.78-6.7,7.16-3.66,35.45-3.64,71,1.28,106.19,6.59,47,15.53,93.74,23,140.66,1.6,10,5.81,15.65,16.23,16.66,7,.67,13.8,2.8,20.77,3.61,38,4.44,75.84,2.26,113.61-3.11,5.66-.81,8.22-3,9.32-8.67,5.15-26.5,11.18-52.84,16-79.39,8.41-46.31,14.25-92.94,13.68-140.13C227,86.81,225.79,73.19,225,59.22l-92.9,2.84c-.15,2.68-.37,4.87-.37,7.06q0,34.63,0,69.28c0,4,.21,8.24-6.57,7.07-.39-4.15-.78-8.23-1.16-12.17-13.58-3.57-15.6-5.88-15.81-20.07C107.93,96.38,108.12,79.51,108.12,61.47Zm17.49-27.66c-.86-.54-1.09-.81-1.32-.82-33.7-1.82-67.4-3.66-101.1-5.28-1.65-.08-4.55,1.56-4.91,2.91-1.82,6.9-3,14-4.74,22.64l112.07,4.3ZM133.43,58l91.32-2.59c-1.78-9.9-3.25-18-4.56-25.27l-86.76,3.43Zm-14.61,2.13L115,62.4c0,17.36-.2,34.72.12,52.07.1,5.56,1.75,11,9.44,11.92,0-20.45.16-40.37-.25-60.27C124.23,64.09,120.72,62.12,118.82,60.13Z"/></svg>